<svg width="860" height="1045" viewBox="0 0 860 1045" fill="none" xmlns="http://www.w3.org/2000/svg">
<path d="M237.34 690.901C236.22 699.68 235.753 708.721 235.94 718.024C236.201 732.631 233.625 733.154 228.211 719.593C222.387 705.023 219.213 687.52 218.691 667.085C218.579 661.033 216.619 655.877 213.762 650.666C182.848 594.123 191.697 546.323 221.491 491.966C232.468 471.979 242.38 450.965 251.229 428.923C252.685 425.187 252.723 421.451 251.341 417.715L238.348 382.411C237.639 380.469 237.601 378.526 238.236 376.583L243.837 360.052C244.733 357.362 243.781 356.092 240.98 356.241L230.34 356.802C227.689 356.914 226.438 355.662 226.587 353.047C226.662 351.59 226.233 350.395 225.299 349.461C223.955 348.079 222.331 347.518 220.427 347.78C172.935 354 111.443 339.822 86.6333 294.992C85.5457 293.029 83.8511 291.491 81.817 290.621C38.9179 272.352 12.876 219.34 4.36344 175.35C4.2732 174.904 4.29783 174.442 4.435 174.007C4.57218 173.573 4.81742 173.18 5.1477 172.866C5.47798 172.553 5.88249 172.328 6.32327 172.214C6.76405 172.099 7.22664 172.099 7.66767 172.212L15.2842 174.23C19.0178 175.201 20.0819 173.949 18.4764 170.475C-7.62142 113.989 -6.07198 57.7451 23.1248 1.74436C23.3992 1.20532 23.8209 0.755339 24.3409 0.446773C24.861 0.138207 25.4579 -0.0162578 26.0622 0.00135438C26.6665 0.0189665 27.2534 0.207934 27.7545 0.546261C28.2557 0.884588 28.6506 1.35837 28.8932 1.91248C52.5829 56.1574 95.762 144.698 158.374 159.884C177.416 164.479 198.753 167.935 222.387 170.251C223.283 170.328 224.176 170.081 224.898 169.555C225.62 169.028 226.121 168.26 226.307 167.393L228.715 156.017C229.387 152.767 231.366 151.347 234.652 151.758L278.167 157.194C280.108 157.418 281.751 156.839 283.095 155.457C287.09 151.422 290.861 147.051 294.408 142.344C313.17 117.743 347.22 100.427 376.454 92.8063C377.302 92.5772 378.096 92.1761 378.789 91.6272C379.482 91.0783 380.06 90.3928 380.486 89.6121C382.652 85.5774 383.193 80.7394 382.11 75.0982C381.761 73.2212 382.156 71.2819 383.212 69.6917C384.268 68.1014 385.902 66.9854 387.767 66.5805C395.831 64.862 404.437 62.9567 413.585 60.8646C434.81 55.9893 455.42 62.7699 475.581 66.6925C477.747 67.1408 478.829 68.4671 478.829 70.6712L478.885 87.7068C478.885 90.1725 480.08 91.6855 482.47 92.2459C522.606 101.623 554.005 122.432 576.668 154.672C577.938 156.54 579.693 157.344 581.933 157.082L627.576 151.87C629.667 151.609 630.843 152.524 631.104 154.616L632.392 165.152C632.878 169.186 635.137 170.961 639.169 170.475C688.396 164.199 728.047 161.117 761.874 119.873C789.017 86.7729 811.811 47.7703 830.255 2.86512C830.529 2.22311 830.979 1.67181 831.553 1.275C832.127 0.878184 832.801 0.652055 833.498 0.622747C834.196 0.593439 834.887 0.76215 835.492 1.10938C836.097 1.45661 836.592 1.96818 836.919 2.58493C866.489 59.557 867.647 115.707 840.391 171.036C838.226 175.369 839.421 176.714 843.976 175.07L854.224 171.372C854.492 171.271 854.782 171.246 855.063 171.298C855.344 171.351 855.605 171.479 855.819 171.67C856.032 171.86 856.189 172.105 856.274 172.379C856.358 172.652 856.366 172.943 856.296 173.221C845.712 221.302 822.806 269.102 778.339 291.013C776.099 292.097 774.381 293.722 773.186 295.888C749.329 339.038 685.484 352.487 639.953 348.957C637.75 348.807 636.033 349.629 634.801 351.422C631.291 356.466 626.232 358.315 619.623 356.97C616.524 356.298 615.498 357.474 616.543 360.5L622.368 377.144C623.04 379.086 622.984 381.01 622.2 382.916L608.367 417.435C607.62 419.228 607.433 421.078 607.807 422.983C609.337 430.716 611.876 438.319 615.423 445.79C625.84 467.757 636.947 489.93 648.746 512.308C674.339 560.949 669.411 603.594 645.945 650.554C642.697 657.017 641.11 663.909 641.185 671.232C641.409 690.845 636.873 709.674 627.576 727.718C627.165 728.503 626.512 729.007 625.616 729.231C624.757 729.455 624.104 729.325 623.656 728.839C623.208 728.391 623.712 698.746 623.32 694.656C622.61 686.325 621.136 686.194 618.895 694.263C604.372 746.827 572.655 792.218 523.745 830.436C523.32 830.766 522.835 831.007 522.316 831.146C521.797 831.285 521.255 831.319 520.723 831.246C520.191 831.173 519.679 830.995 519.217 830.721C518.755 830.447 518.352 830.083 518.032 829.651C517.099 828.419 515.904 827.84 514.448 827.914C512.357 827.989 510.938 828.998 510.192 830.94C499.439 858.922 484.672 885.372 465.892 910.29C465.249 911.118 464.842 912.107 464.714 913.152C464.586 914.198 464.741 915.261 465.164 916.23C468.973 925.197 473.453 934.125 478.605 943.017C482.47 949.741 480.733 956.186 477.709 962.574C464.754 990.219 451.686 1017.23 438.506 1043.61C438.295 1044.03 437.968 1044.38 437.564 1044.63C437.16 1044.88 436.694 1045.01 436.221 1045C435.747 1044.99 435.285 1044.85 434.887 1044.6C434.489 1044.34 434.171 1043.98 433.97 1043.55C422.172 1019.83 410.374 996.608 398.576 973.894C394.058 965.189 390.436 956.186 387.711 946.883C387.349 945.691 387.408 944.423 387.879 943.297L398.128 917.743C398.8 915.988 398.557 914.362 397.4 912.868C375.483 885.111 359.615 857.017 349.796 828.587C348.303 824.178 346.287 823.917 343.748 827.802C341.321 831.538 338.39 832.08 334.955 829.427C287.576 792.218 255.896 745.987 239.916 690.733C238.759 686.698 237.9 686.754 237.34 690.901ZM54.431 148.34C67.648 152.3 81.6116 155.345 96.322 157.474C100.541 158.072 101.008 157.026 97.7221 154.336C68.7867 130.651 46.3291 99.1199 30.3493 59.7438C28.4078 55.0366 27.1197 55.2047 26.485 60.2482C20.2686 107.432 30.8533 180.45 74.9845 208.917C75.7732 209.416 76.6779 209.707 77.6166 209.766C78.5554 209.825 79.4986 209.649 80.3609 209.253L89.0975 205.219C89.4922 205.034 89.8377 204.758 90.1043 204.414C90.3708 204.07 90.5504 203.668 90.6276 203.244C90.7048 202.819 90.6772 202.384 90.5472 201.977C90.4173 201.569 90.1888 201.201 89.8815 200.904C74.5364 185.923 61.9916 169.298 52.2469 151.03C50.7907 148.377 51.5188 147.481 54.431 148.34ZM808.189 146.883C809.421 146.472 809.738 146.846 809.141 148.004C797.306 169.821 783.883 187.492 768.874 201.016C767.082 202.622 767.269 203.93 769.434 204.939L778.227 208.973C779.907 209.758 781.55 209.683 783.155 208.749C829.694 181.683 839.719 109.225 831.991 59.7998C831.244 55.0553 830.086 54.9432 828.518 59.4636C815.787 96.1499 793.385 128.166 761.314 155.513C758.7 157.717 759.092 158.539 762.49 157.979C778.395 155.251 793.628 151.553 808.189 146.883ZM437.162 241.027L451.555 240.13C452.527 240.073 453.439 239.641 454.106 238.922C454.772 238.203 455.142 237.252 455.14 236.264L455.252 89.1638C455.252 86.474 453.926 85.073 451.275 84.961L428.202 83.9523L408.824 85.1291C407.963 85.1722 407.15 85.5455 406.556 86.1714C405.962 86.7973 405.631 87.628 405.632 88.4914L405.52 236.376C405.52 237.323 405.888 238.233 406.546 238.913C407.205 239.593 408.102 239.989 409.048 240.018L437.162 241.027ZM379.982 240.747C380.829 240.747 381.641 240.41 382.24 239.811C382.838 239.212 383.175 238.4 383.175 237.553L383.231 119.817C383.235 119.509 383.166 119.205 383.031 118.928C382.896 118.652 382.698 118.411 382.452 118.226C382.207 118.041 381.921 117.915 381.619 117.861C381.316 117.806 381.005 117.823 380.71 117.911C324.426 134.611 284.383 177.424 282.199 237.329C282.125 239.645 283.245 240.803 285.56 240.803L379.982 240.747ZM478.325 125.477L478.157 237.385C478.157 239.29 479.109 240.243 481.013 240.243L569.668 240.299C571.497 241.158 573.513 241.307 575.716 240.747C577.546 240.299 578.442 239.122 578.404 237.217C576.724 178.769 535.897 136.292 482.246 118.136C480.341 117.5 479.147 118.173 478.661 120.153C478.139 122.282 478.027 124.057 478.325 125.477ZM128.804 179.833C128.549 179.62 128.238 179.483 127.908 179.441L91.8417 173.389C91.4705 173.333 91.0911 173.4 90.7606 173.578C90.4301 173.756 90.1662 174.036 90.0085 174.377C89.8508 174.718 89.8077 175.101 89.8858 175.468C89.9639 175.836 90.1589 176.168 90.4416 176.415L117.94 200.119C118.163 200.315 118.433 200.45 118.724 200.512L154.566 207.516C154.935 207.585 155.316 207.533 155.652 207.368C155.989 207.202 156.263 206.932 156.433 206.597C156.603 206.263 156.66 205.883 156.597 205.513C156.533 205.143 156.351 204.804 156.078 204.546L128.804 179.833ZM768.482 176.415C768.781 176.131 768.979 175.757 769.048 175.35C769.116 174.944 769.051 174.525 768.861 174.159C768.672 173.793 768.369 173.497 767.997 173.318C767.626 173.139 767.207 173.085 766.802 173.165L731.575 180.058C731.242 180.124 730.933 180.279 730.679 180.506L703.405 204.21C703.077 204.475 702.846 204.84 702.748 205.25C702.65 205.66 702.691 206.091 702.864 206.476C703.037 206.86 703.332 207.176 703.704 207.375C704.075 207.573 704.502 207.643 704.918 207.572L741.04 201.632C741.419 201.57 741.771 201.394 742.048 201.128L768.482 176.415ZM592.293 183.532C598.379 202.585 601.123 220.648 600.526 237.721C600.451 240.187 601.646 241.457 604.11 241.531L605.678 241.588C608.441 241.662 609.841 240.299 609.879 237.497L610.607 181.515C610.615 181.019 610.522 180.528 610.334 180.071C610.146 179.613 609.867 179.201 609.515 178.859C609.162 178.516 608.744 178.252 608.286 178.082C607.828 177.913 607.341 177.841 606.854 177.872L595.71 178.489C592.424 178.675 591.285 180.357 592.293 183.532ZM260.47 236.992C260.134 216.707 265.174 201.52 270.102 181.963C270.588 180.02 269.822 179.03 267.806 178.993L252.629 178.545C250.613 178.507 249.605 179.479 249.605 181.459L249.941 237.721C249.941 240.56 251.341 241.83 254.141 241.531L256.717 241.251C259.256 240.952 260.507 239.533 260.47 236.992ZM163.807 186.166C161.977 185.83 161.809 186.222 163.303 187.343C181.392 200.96 201.105 214.017 223.731 212.896C225.374 212.821 226.233 211.962 226.307 210.318L226.923 197.149C226.998 195.057 225.99 193.936 223.899 193.787C204.148 192.629 184.118 190.088 163.807 186.166ZM692.485 189.08C695.472 186.651 695.079 185.848 691.309 186.67C673.163 190.63 655.41 193.171 638.049 194.291C637.055 194.354 636.118 194.769 635.408 195.458C634.698 196.147 634.264 197.066 634.184 198.046L633.232 209.646C632.971 212.634 634.334 213.998 637.321 213.737C655.914 212.13 674.302 203.911 692.485 189.08ZM791.948 230.044C772.639 242.675 751.849 253.018 740.82 259.464C729.79 265.909 728.271 266.188 726.143 267.421C716.473 273.025 717.201 276.256 728.327 277.116C770.05 280.366 799.452 252.851 817.15 218.444C819.614 213.699 818.606 212.784 814.125 215.698L791.948 230.044ZM105.283 276.443C116.455 278.444 129.179 278.44 129.55 278.452L141.517 276.779C142.058 276.777 142.583 276.597 143.011 276.267C143.439 275.937 143.747 275.475 143.887 274.953C144.027 274.43 143.992 273.876 143.786 273.376C143.58 272.876 143.216 272.457 142.749 272.184L44.4623 215.642C43.9689 215.38 43.4014 215.294 42.8528 215.398C42.3041 215.502 41.8069 215.788 41.4425 216.212C41.0781 216.635 40.8681 217.169 40.847 217.728C40.8258 218.286 40.9947 218.835 41.3261 219.284C41.3261 219.284 56.5924 243.299 63.1003 249.713C69.6081 256.127 76.3903 262.622 83.0353 267.794C89.6803 272.965 94.1103 274.443 105.283 276.443ZM709.342 237.833C709.691 238.866 709.631 239.996 709.173 240.994C708.716 241.992 707.896 242.785 706.878 243.213C701.725 245.379 697.376 248.293 693.829 251.955C688.975 257.035 689.927 258.623 696.685 256.718C716.436 251.151 735.458 239.962 753.753 223.151C757.375 219.826 756.74 218.481 751.849 219.116C715.745 223.973 677.494 226.196 637.097 225.785C636.692 225.777 636.29 225.85 635.914 225.998C635.537 226.146 635.193 226.367 634.902 226.648C634.611 226.929 634.378 227.264 634.216 227.636C634.055 228.007 633.968 228.406 633.96 228.811L633.456 247.415C633.419 249.433 634.371 250.273 636.313 249.937C658.565 246.5 681.452 241.195 704.974 234.022C705.724 233.79 706.535 233.859 707.235 234.215C707.935 234.571 708.47 235.185 708.726 235.928L709.342 237.833ZM154.342 246.967C144.748 240.299 139.184 230.585 154.566 235.928C171.965 242.017 199.5 246.762 222.499 249.713C225.225 250.049 226.569 248.854 226.531 246.127L226.083 229.091C226.046 226.887 224.907 225.785 222.667 225.785C181.821 225.747 143.533 223.637 107.803 219.452C101.829 218.743 101.082 220.386 105.563 224.384C122.14 239.066 140.864 250.255 161.735 257.951C162.613 258.273 163.569 258.311 164.465 258.059C165.361 257.807 166.15 257.279 166.719 256.55L167.727 255.261C168.698 254.065 168.455 253.187 166.999 252.627C159.308 249.75 155.089 247.864 154.342 246.967ZM634.129 264.227L633.736 275.042C633.699 276.35 634.315 276.873 635.585 276.611C648.353 273.735 660.301 268.747 671.427 261.649C671.726 261.462 671.931 261.22 672.043 260.921C672.192 260.398 672.23 259.912 672.155 259.464C672.006 258.231 671.315 257.67 670.083 257.783L637.321 260.809C635.267 260.995 634.203 262.135 634.129 264.227ZM221.715 277.508C222.18 277.686 222.68 277.751 223.175 277.698C223.67 277.644 224.145 277.473 224.561 277.199C224.977 276.926 225.322 276.557 225.567 276.123C225.812 275.689 225.951 275.204 225.971 274.706L226.531 263.218C226.546 262.806 226.48 262.395 226.336 262.008C226.192 261.622 225.973 261.268 225.693 260.966C225.412 260.664 225.074 260.42 224.699 260.249C224.324 260.078 223.919 259.982 223.507 259.968L191.305 258.847C190.57 258.831 189.852 259.073 189.278 259.532C188.703 259.991 188.308 260.637 188.162 261.358C188.015 262.079 188.126 262.828 188.475 263.476C188.824 264.123 189.39 264.627 190.073 264.899L221.715 277.508ZM433.41 331.865H608.087C608.948 331.865 609.774 331.523 610.383 330.913C610.993 330.303 611.335 329.477 611.335 328.615L611.279 267.197C611.279 266.365 610.954 265.566 610.377 264.978C609.799 264.389 609.016 264.059 608.199 264.059L428.426 264.115H251.957C251.185 264.115 250.444 264.422 249.898 264.968C249.352 265.515 249.045 266.256 249.045 267.029V328.671C249.045 329.533 249.381 330.359 249.98 330.969C250.579 331.579 251.391 331.921 252.237 331.921L433.41 331.865ZM210.262 296.299C210.421 295.887 210.498 295.448 210.488 295.006C210.478 294.565 210.381 294.13 210.203 293.726C210.025 293.322 209.769 292.957 209.45 292.652C209.131 292.347 208.755 292.108 208.344 291.948L173.569 278.452C173.158 278.292 172.719 278.215 172.278 278.225C171.837 278.235 171.402 278.332 170.998 278.51C170.594 278.688 170.23 278.944 169.925 279.263C169.62 279.583 169.381 279.959 169.221 280.37L169.1 280.684C168.94 281.096 168.863 281.535 168.873 281.976C168.883 282.418 168.98 282.853 169.158 283.257C169.336 283.661 169.592 284.026 169.911 284.331C170.23 284.636 170.606 284.875 171.017 285.035L205.792 298.531C206.203 298.691 206.642 298.768 207.083 298.758C207.525 298.748 207.959 298.651 208.363 298.473C208.767 298.295 209.132 298.039 209.437 297.72C209.741 297.4 209.98 297.024 210.14 296.612L210.262 296.299ZM688.985 279.35C688.792 278.872 688.043 278.626 686.782 278.625C685.521 278.623 683.772 278.867 681.636 279.342C679.499 279.817 677.016 280.514 674.329 281.393C671.642 282.272 668.804 283.315 665.976 284.464C663.148 285.613 660.386 286.845 657.847 288.089C655.309 289.334 653.043 290.566 651.181 291.716C649.318 292.866 647.895 293.911 646.991 294.792C646.088 295.672 645.723 296.371 645.917 296.848C646.11 297.326 646.859 297.572 648.12 297.574C649.381 297.575 651.13 297.331 653.266 296.856C655.403 296.381 657.885 295.684 660.572 294.806C663.259 293.927 666.098 292.883 668.926 291.734C671.754 290.585 674.516 289.353 677.054 288.109C679.593 286.865 681.858 285.632 683.721 284.482C685.584 283.333 687.007 282.287 687.91 281.407C688.814 280.526 689.179 279.827 688.985 279.35ZM173.132 305.189C173.222 304.429 172.596 303.591 171.288 302.723C169.98 301.855 168.016 300.973 165.508 300.129C163.001 299.285 159.998 298.494 156.673 297.803C153.347 297.111 149.764 296.531 146.127 296.097C138.782 295.221 131.666 294.99 126.343 295.456C121.02 295.921 117.927 297.045 117.744 298.58C117.653 299.34 118.279 300.178 119.587 301.046C120.895 301.914 122.859 302.796 125.367 303.64C127.874 304.484 130.877 305.275 134.202 305.966C137.528 306.658 141.111 307.238 144.748 307.672C152.093 308.548 159.209 308.779 164.532 308.313C169.855 307.848 172.948 306.724 173.132 305.189ZM740.82 298.958C740.646 297.363 737.535 296.152 732.171 295.594C726.807 295.035 719.63 295.174 712.217 295.98C708.547 296.379 704.929 296.929 701.571 297.6C698.212 298.271 695.179 299.05 692.645 299.891C690.11 300.731 688.123 301.618 686.798 302.501C685.473 303.384 684.835 304.245 684.921 305.035C685.094 306.631 688.205 307.841 693.569 308.399C698.933 308.958 706.111 308.819 713.523 308.013C717.194 307.614 720.811 307.064 724.17 306.393C727.528 305.722 730.561 304.944 733.096 304.103C735.63 303.262 737.617 302.375 738.942 301.492C740.268 300.609 740.906 299.748 740.82 298.958ZM212.411 321.054C212.399 320.598 211.839 320.161 210.761 319.767C209.684 319.374 208.111 319.032 206.132 318.761C204.154 318.49 201.808 318.295 199.229 318.188C196.65 318.081 193.889 318.064 191.102 318.137C188.316 318.21 185.559 318.372 182.989 318.614C180.419 318.856 178.087 319.173 176.125 319.547C174.163 319.921 172.61 320.345 171.555 320.794C170.5 321.244 169.963 321.71 169.975 322.166C169.986 322.622 170.547 323.059 171.624 323.453C172.702 323.846 174.274 324.188 176.253 324.459C178.232 324.73 180.578 324.924 183.157 325.032C185.736 325.139 188.497 325.156 191.284 325.083C194.07 325.01 196.827 324.848 199.397 324.606C201.966 324.364 204.299 324.047 206.261 323.673C208.222 323.299 209.775 322.875 210.831 322.426C211.886 321.976 212.423 321.51 212.411 321.054ZM688.839 322.064C688.86 321.158 686.773 320.241 683.039 319.515C679.305 318.789 674.229 318.313 668.928 318.193C663.627 318.072 658.535 318.317 654.772 318.873C651.009 319.428 648.883 320.25 648.863 321.156C648.842 322.062 650.929 322.979 654.663 323.705C658.397 324.431 663.473 324.907 668.774 325.027C674.075 325.148 679.167 324.903 682.93 324.347C686.693 323.791 688.818 322.97 688.839 322.064ZM268.758 398.438L268.87 358.203C268.87 357.92 268.758 357.65 268.559 357.45C268.359 357.25 268.088 357.138 267.806 357.138H267.358C265.235 357.141 263.193 359.285 261.68 363.1C260.168 366.914 259.31 372.087 259.294 377.48V379.161C259.286 381.833 259.485 384.479 259.881 386.948C260.276 389.416 260.86 391.659 261.598 393.548C262.337 395.438 263.216 396.936 264.185 397.957C265.154 398.979 266.194 399.504 267.246 399.503H267.694C267.834 399.503 267.972 399.475 268.101 399.422C268.231 399.368 268.348 399.29 268.447 399.191C268.545 399.092 268.624 398.975 268.677 398.846C268.731 398.716 268.758 398.578 268.758 398.438ZM316.754 377.032C316.199 376.726 315.742 376.27 315.435 375.716C315.129 375.162 314.984 374.532 315.019 373.9C315.055 373.267 315.268 372.658 315.634 372.141C316 371.624 316.505 371.222 317.09 370.98C323.736 368.29 329.859 364.853 335.459 360.668C339.081 357.904 338.614 356.578 334.059 356.69L292.672 357.923C291.786 357.952 290.945 358.325 290.328 358.963C289.712 359.601 289.367 360.453 289.368 361.341L289.2 414.017C289.182 415.45 289.515 416.864 290.17 418.134C290.824 419.404 291.78 420.492 292.952 421.302L320.954 440.971C322.709 442.204 324.314 442.055 325.77 440.523C342.198 423.599 361.613 416.763 384.015 420.013C387.823 420.573 390.436 419.079 391.855 415.53L395.831 405.667C397.325 402.043 396.111 400.343 392.191 400.568C377.798 401.296 361.669 403.706 348.788 395.636C338.035 388.874 327.357 382.673 316.754 377.032ZM428.986 450.273C437.648 446.201 445.544 440.766 452.675 433.966C454.244 432.509 454.729 430.753 454.132 428.699L441.195 382.86C440.149 379.198 441.269 378.302 444.555 380.17C448.401 382.337 452.395 382.654 456.54 381.122C472.594 375.108 488.686 368.719 504.815 361.957C512.357 358.782 512.04 357.213 503.863 357.25L430.386 357.642L354.5 356.914C347.705 356.877 347.425 358.203 353.66 360.893C367.624 366.907 382.689 373.184 398.856 379.721C405.277 382.299 411.438 382.112 417.337 379.161C417.563 379.055 417.815 379.013 418.064 379.042C418.312 379.071 418.546 379.169 418.736 379.323C418.926 379.478 419.065 379.683 419.135 379.913C419.205 380.143 419.203 380.388 419.129 380.618L404.96 429.595C404.437 431.501 404.979 433.032 406.584 434.19L428.986 450.273ZM542.954 377.032C531.903 382.411 520.926 388.688 510.024 395.86C497.367 404.154 480.565 400.4 466.172 401.24C464.38 401.352 463.727 402.267 464.212 403.986L468.133 418.332C468.767 420.611 470.242 421.489 472.557 420.966C495.481 415.661 516.128 422.254 534.497 440.747C535.841 442.129 537.279 442.26 538.81 441.139L567.26 420.461C569.687 418.705 570.919 416.333 570.956 413.344L571.796 360.668C571.796 359.92 571.503 359.202 570.979 358.667C570.456 358.133 569.744 357.825 568.996 357.811L523.969 357.082C520.347 357.007 520.048 357.96 523.073 359.94C529.084 363.9 535.711 367.617 542.954 371.092C543.51 371.364 543.978 371.786 544.305 372.311C544.633 372.836 544.806 373.443 544.806 374.062C544.806 374.681 544.633 375.287 544.305 375.812C543.978 376.337 543.51 376.76 542.954 377.032ZM594.982 358.931C594.834 358.533 594.55 358.199 594.18 357.991C593.81 357.782 593.377 357.712 592.96 357.793C592.543 357.874 592.168 358.1 591.903 358.432C591.637 358.763 591.498 359.179 591.509 359.604V397.373C591.498 397.798 591.637 398.214 591.903 398.545C592.168 398.877 592.543 399.104 592.96 399.184C593.377 399.265 593.81 399.195 594.18 398.986C594.55 398.778 594.834 398.445 594.982 398.046L602.766 379.161C602.941 378.73 602.941 378.247 602.766 377.816L594.982 358.931ZM410.673 465.46C401.488 459.37 393.33 452.048 386.199 443.493C385.308 442.408 384.181 441.538 382.901 440.947C381.622 440.355 380.222 440.057 378.806 440.075C353.194 440.635 334.918 453.991 323.978 480.142C315.316 500.839 304.228 517.743 290.712 530.856C288.061 533.434 288.528 534.256 292.112 533.322C335.944 521.853 375.577 500.932 411.008 470.559C411.384 470.236 411.68 469.83 411.872 469.373C412.064 468.916 412.147 468.42 412.115 467.925C412.082 467.431 411.935 466.95 411.684 466.522C411.434 466.094 411.088 465.731 410.673 465.46ZM475.581 443.213L447.859 466.917C446.366 468.187 446.384 469.42 447.915 470.615C483.384 499.531 522.027 520.116 563.843 532.369C568.846 533.864 569.742 532.537 566.532 528.391L543.85 499.363C536.457 482.701 530.502 470.989 525.985 464.227C512.805 444.352 496.004 437.347 475.581 443.213ZM255.093 510.514C255.28 517.874 254.496 524.617 252.741 530.744C250.688 537.88 252.517 539.075 258.23 534.331C278.055 517.818 293.083 496.225 303.313 469.551C303.723 468.467 304.246 467.402 304.881 466.356C308.764 460.043 306.188 455.448 297.152 452.571C296.496 452.355 295.789 452.346 295.127 452.547C294.466 452.747 293.882 453.147 293.456 453.692L267.414 487.371C264.353 491.293 262.859 490.77 262.934 485.802L263.326 456.213C263.438 448.405 261.739 447.976 258.23 454.925C249.157 472.894 240.234 490.864 231.46 508.833C212.904 546.865 211.168 588.221 226.251 632.902C227.11 635.479 228.23 635.591 229.612 633.238C242.978 610.449 258.715 588.202 276.823 566.497C281.229 561.192 280.108 559.473 273.463 561.341L254.085 566.777C251.93 567.397 250.001 568.644 248.541 570.363L241.876 578.321C239.226 581.533 237.9 581.048 237.9 576.864C237.975 546.977 242.082 524.468 250.221 509.338C253.32 503.622 254.944 504.014 255.093 510.514ZM617.887 579.778C615.236 577.237 613.388 574.155 612.343 570.531C611.671 568.252 610.159 566.851 607.807 566.328L584.397 561.229C580.701 560.444 580.047 561.528 582.437 564.479C599.686 585.718 618.335 608.245 630.544 633.238C631.888 635.965 633.027 635.89 633.96 633.014C657.986 561.957 636.985 514.885 599.686 452.347C597.184 448.163 596.027 448.499 596.214 453.356L597.222 482.439C597.483 489.164 595.56 489.855 591.453 484.513L567.708 453.692C566.14 451.674 564.329 451.432 562.275 452.963L555.499 458.119C553.595 459.538 553.053 461.369 553.875 463.61C564.889 493.535 581.111 517.37 602.542 535.115C606.537 538.44 608.236 537.525 607.639 532.369C606.63 523.665 605.716 515.408 604.894 507.6C604.82 506.853 605.137 506.293 605.846 505.919C605.996 505.807 606.164 505.751 606.35 505.751C607.807 505.564 608.852 506.143 609.487 507.488C619.157 529.306 623.189 552.917 621.584 578.321C621.36 581.421 620.127 581.907 617.887 579.778ZM412.353 502.725C412.059 502.941 411.84 503.243 411.728 503.59C411.615 503.937 411.615 504.311 411.726 504.658C411.838 505.005 412.056 505.308 412.349 505.525C412.642 505.741 412.996 505.859 413.361 505.863L444.275 506.143C444.644 506.152 445.006 506.042 445.309 505.83C445.611 505.618 445.838 505.315 445.957 504.965C446.076 504.615 446.08 504.236 445.969 503.884C445.857 503.531 445.637 503.224 445.339 503.005L429.994 491.517C429.694 491.295 429.331 491.174 428.958 491.174C428.585 491.174 428.221 491.295 427.922 491.517L412.353 502.725ZM312.721 578.881C309.753 593.507 304.041 607.797 301.801 622.703C294.856 669.476 298.926 715.558 314.01 760.949C320.394 780.002 322.504 779.535 320.338 759.548C313.73 698.242 323.064 639.271 348.34 582.635C357.581 561.901 370.182 544.249 383.791 526.541C384.575 525.533 385.135 524.431 385.471 523.235C386.74 518.864 385.527 518.005 381.83 520.657C356.442 538.627 326.013 551.441 290.544 559.099C289.172 559.375 287.884 559.976 286.784 560.853C285.684 561.73 284.804 562.857 284.215 564.143C257.11 622.591 248.037 676.051 280.575 737.805C282.591 741.616 283.319 741.373 282.759 737.077C275.367 680.086 279.175 629.539 303.537 578.657C304.918 575.855 307.14 574.715 310.201 575.238C312.329 575.575 313.17 576.789 312.721 578.881ZM549.282 576.023L550.907 575.407C552.4 574.883 553.501 575.332 554.211 576.751C580.271 627.97 588.168 680.273 577.9 733.658C576.78 739.486 577.714 739.841 580.701 734.723C612.455 679.862 604.222 619.396 575.548 562.63C575.111 561.77 574.489 561.013 573.725 560.414C572.961 559.814 572.074 559.385 571.124 559.156C535.58 550.675 504.311 537.506 477.317 519.649C476.01 518.789 474.76 518.845 473.565 519.817C473.13 520.168 472.852 520.677 472.789 521.233C472.726 521.789 472.884 522.347 473.229 522.787C521.392 584.989 556.955 685.521 539.538 767.617C538.082 774.529 539.22 774.996 542.954 769.018C545.381 765.17 547.341 761.08 548.834 756.746C569.294 697.458 568.884 638.375 547.602 579.497C547.369 578.814 547.415 578.065 547.729 577.415C548.044 576.765 548.602 576.264 549.282 576.023ZM484.038 812.616C482.656 818.22 480.958 823.562 478.941 828.643C478.724 829.135 478.695 829.69 478.861 830.201C479.027 830.713 479.375 831.145 479.84 831.416C480.304 831.687 480.853 831.776 481.379 831.668C481.906 831.559 482.374 831.26 482.694 830.828C502.519 806.172 514.597 779.292 518.928 750.189C529.961 675.995 516.072 593.843 471.269 533.938C470.235 532.558 468.882 531.452 467.329 530.719C465.776 529.986 464.071 529.648 462.364 529.735L442.651 530.632C438.843 530.819 437.853 532.593 439.683 535.956C457.828 568.943 468.823 589.883 472.669 598.775C500.279 662.154 500.839 743.913 484.038 812.616ZM367.157 767.393C359.597 699.979 364.973 632.397 399.08 573.277C406.323 560.762 413.491 547.985 420.585 534.947C422.303 531.734 421.351 530.146 417.729 530.184L399.472 530.24C394.618 530.277 390.847 532.295 388.159 536.292C344.737 600.549 329.877 673.081 343.58 753.888C348.321 781.645 359.335 806.414 376.622 828.194C380.617 833.275 381.644 832.734 379.702 826.569C373.579 807.442 369.398 787.716 367.157 767.393ZM416.441 860.304L445.787 860.136C447.766 860.136 449.11 859.202 449.819 857.334C484.766 764.984 504.535 645.566 438.17 561.789C436.229 559.212 434.157 557.194 431.954 555.737C430.199 554.616 428.612 554.822 427.194 556.354C367.717 619.733 371.134 727.55 394.375 804.995C399.266 821.32 404.493 837.908 410.056 854.757C411.289 858.455 413.417 860.304 416.441 860.304ZM449.323 886.874C449.333 886.488 449.189 886.114 448.923 885.833C448.657 885.553 448.291 885.39 447.905 885.38L411.851 884.435C411.465 884.425 411.091 884.569 410.81 884.835C410.53 885.101 410.367 885.467 410.357 885.853L410.105 895.488C410.095 895.875 410.239 896.249 410.505 896.529C410.77 896.81 411.137 896.973 411.523 896.983L447.577 897.928C447.963 897.938 448.337 897.794 448.617 897.528C448.897 897.262 449.06 896.896 449.071 896.51L449.323 886.874ZM419.577 971.932L435.034 1003.48C436.192 1005.87 437.293 1005.85 438.338 1003.43L460.348 951.815C461.207 949.835 461.151 947.892 460.18 945.987L451.051 927.27C449.969 925.028 448.176 923.926 445.675 923.964L425.85 924.3C420.287 922.432 416.124 923.216 413.361 926.653C400.928 942.064 411.681 957.867 419.577 971.932Z" fill="black"/>
<path d="M432.069 133.659C449.766 135.564 448.198 164.144 427.757 161.958C410.283 157.139 413.868 132.314 432.069 133.659Z" fill="black"/>
<path d="M279.408 316.79C287.605 316.79 294.249 310.141 294.249 301.94C294.249 293.738 287.605 287.089 279.408 287.089C271.212 287.089 264.567 293.738 264.567 301.94C264.567 310.141 271.212 316.79 279.408 316.79Z" fill="black"/>
<path d="M354.615 316.566C362.749 316.566 369.344 309.967 369.344 301.828C369.344 293.688 362.749 287.089 354.615 287.089C346.48 287.089 339.886 293.688 339.886 301.828C339.886 309.967 346.48 316.566 354.615 316.566Z" fill="black"/>
<path d="M428.319 287.54C448.313 287.596 450.665 311.581 432.856 316.904C412.638 318.81 408.438 292.808 428.319 287.54Z" fill="black"/>
<path d="M504.935 316.792C513.008 316.792 519.552 310.244 519.552 302.166C519.552 294.088 513.008 287.54 504.935 287.54C496.862 287.54 490.318 294.088 490.318 302.166C490.318 310.244 496.862 316.792 504.935 316.792Z" fill="black"/>
<path d="M580.54 316.959C588.706 316.959 595.325 310.335 595.325 302.165C595.325 293.994 588.706 287.37 580.54 287.37C572.375 287.37 565.755 293.994 565.755 302.165C565.755 310.335 572.375 316.959 580.54 316.959Z" fill="black"/>
<path d="M437.163 241.026C437.424 238.187 436.341 236.487 433.914 235.927C431.002 235.217 429.509 233.367 429.434 230.379L427.754 161.956C448.195 164.142 449.764 135.562 432.066 133.657C429.639 125.475 428.389 119.05 428.314 114.38C428.202 104.181 428.165 94.038 428.202 83.9512L451.276 84.9599C453.926 85.0719 455.252 86.4729 455.252 89.1627L455.14 236.263C455.142 237.251 454.772 238.202 454.106 238.921C453.439 239.64 452.527 240.072 451.556 240.129L437.163 241.026Z" fill="black" fill-opacity="0.2"/>
<path d="M569.666 240.298L481.012 240.242C479.107 240.242 478.155 239.29 478.155 237.384L478.323 125.476C533.767 145.127 564.215 183.401 569.666 240.298Z" fill="black" fill-opacity="0.2"/>
<path d="M433.409 331.863L432.849 316.901C450.658 311.578 448.306 287.593 428.312 287.537C431.15 281.859 431.187 274.051 428.424 264.113L608.197 264.057C609.014 264.057 609.798 264.388 610.375 264.976C610.953 265.565 611.277 266.363 611.277 267.195L611.333 328.613C611.333 329.475 610.991 330.302 610.382 330.911C609.773 331.521 608.947 331.863 608.085 331.863H433.409ZM519.543 302.163C519.543 298.284 518.003 294.564 515.262 291.821C512.52 289.078 508.803 287.537 504.926 287.537C503.006 287.537 501.106 287.916 499.332 288.651C497.559 289.386 495.947 290.463 494.59 291.821C493.233 293.179 492.156 294.792 491.422 296.566C490.687 298.341 490.309 300.242 490.309 302.163C490.309 304.084 490.687 305.986 491.422 307.76C492.156 309.535 493.233 311.147 494.59 312.505C495.947 313.863 497.559 314.941 499.332 315.676C501.106 316.411 503.006 316.789 504.926 316.789C508.803 316.789 512.52 315.248 515.262 312.505C518.003 309.762 519.543 306.042 519.543 302.163ZM595.316 302.163C595.316 298.24 593.758 294.477 590.986 291.702C588.213 288.928 584.452 287.369 580.531 287.369C576.61 287.369 572.849 288.928 570.077 291.702C567.304 294.477 565.746 298.24 565.746 302.163C565.746 306.087 567.304 309.85 570.077 312.624C572.849 315.399 576.61 316.957 580.531 316.957C584.452 316.957 588.213 315.399 590.986 312.624C593.758 309.85 595.316 306.087 595.316 302.163Z" fill="black" fill-opacity="0.2"/>
<path d="M428.985 450.274C430.665 448.63 431.393 446.781 431.169 444.726C431.069 443.795 430.72 442.908 430.158 442.158C429.596 441.409 428.843 440.825 427.977 440.467C426.894 440.019 426.297 439.216 426.185 438.058C425.924 435.742 426.596 433.762 428.201 432.118C431.3 428.98 432.644 425.767 432.234 422.479C429.807 401.446 429.191 379.834 430.385 357.643L503.863 357.251C512.039 357.214 512.357 358.783 504.815 361.958C488.686 368.72 472.594 375.108 456.539 381.123C452.395 382.655 448.4 382.337 444.554 380.17C441.269 378.303 440.149 379.199 441.194 382.86L454.131 428.699C454.728 430.754 454.243 432.51 452.675 433.967C445.544 440.766 437.647 446.202 428.985 450.274Z" fill="black" fill-opacity="0.2"/>
<path d="M542.962 377.031C543.518 376.759 543.986 376.336 544.313 375.811C544.641 375.286 544.815 374.68 544.815 374.061C544.815 373.442 544.641 372.835 544.313 372.31C543.986 371.785 543.518 371.363 542.962 371.091C535.719 367.616 529.092 363.899 523.081 359.939C520.057 357.959 520.355 357.007 523.977 357.081L569.004 357.81C569.752 357.824 570.464 358.132 570.988 358.666C571.511 359.201 571.804 359.919 571.804 360.668L570.964 413.344C570.927 416.332 569.695 418.704 567.268 420.46L538.818 441.138C537.287 442.259 535.85 442.128 534.506 440.746C516.136 422.254 495.489 415.66 472.565 420.965C470.25 421.488 468.775 420.61 468.141 418.331L464.22 403.985C463.735 402.267 464.388 401.351 466.181 401.239C480.574 400.399 497.375 404.153 510.032 395.86C520.934 388.687 531.911 382.411 542.962 377.031Z" fill="black" fill-opacity="0.2"/>
<path d="M594.983 358.934L602.768 377.819C602.942 378.25 602.942 378.732 602.768 379.163L594.983 398.048C594.836 398.447 594.552 398.78 594.182 398.989C593.811 399.197 593.379 399.268 592.962 399.187C592.545 399.106 592.17 398.88 591.904 398.548C591.639 398.216 591.499 397.801 591.511 397.376V359.606C591.499 359.181 591.639 358.766 591.904 358.434C592.17 358.102 592.545 357.876 592.962 357.795C593.379 357.714 593.811 357.785 594.182 357.993C594.552 358.202 594.836 358.535 594.983 358.934Z" fill="black" fill-opacity="0.2"/>
<path d="M475.583 443.211C493.766 450.57 508.401 461.61 519.49 476.329C525.763 484.66 531.774 492.991 537.523 501.322C537.815 501.76 538.222 502.109 538.7 502.331C542.508 504.199 544.225 503.209 543.852 499.361L566.534 528.389C569.744 532.535 568.848 533.862 563.845 532.367C522.029 520.114 483.386 499.529 447.917 470.613C446.386 469.418 446.368 468.185 447.861 466.915L475.583 443.211Z" fill="black" fill-opacity="0.2"/>
<path d="M621.59 578.321C623.195 552.917 619.163 529.306 609.493 507.489C608.858 506.144 607.813 505.565 606.357 505.752C606.17 505.752 606.002 505.808 605.853 505.92C605.143 506.293 604.826 506.854 604.901 507.601C605.722 515.409 606.637 523.665 607.645 532.37C608.242 537.525 606.544 538.44 602.549 535.116C581.118 517.37 564.895 493.535 553.881 463.611C553.06 461.369 553.601 459.539 555.505 458.119L562.282 452.964C564.335 451.432 566.146 451.675 567.714 453.692L591.46 484.513C595.567 489.855 597.49 489.164 597.228 482.44L596.22 453.356C596.033 448.499 597.191 448.163 599.692 452.347C636.991 514.886 657.993 561.958 633.967 633.014C633.033 635.891 631.895 635.966 630.551 633.238C618.342 608.245 599.692 585.718 582.443 564.48C580.054 561.528 580.707 560.445 584.403 561.229L607.813 566.329C610.165 566.852 611.677 568.253 612.349 570.532C613.395 574.155 615.243 577.238 617.894 579.778C620.134 581.907 621.366 581.422 621.59 578.321Z" fill="black" fill-opacity="0.2"/>
<path d="M363.647 495.899C385.997 482.462 402.682 469.182 400.913 466.237C399.145 463.292 379.593 471.798 357.244 485.236C334.894 498.673 318.209 511.953 319.977 514.898C321.746 517.842 341.297 509.336 363.647 495.899Z" fill="black" fill-opacity="0.2"/>
<path d="M547.602 579.498C568.884 638.375 569.294 697.458 548.834 756.746C547.341 761.08 545.381 765.171 542.954 769.019C539.22 774.996 538.082 774.529 539.538 767.618C556.955 685.522 521.392 584.989 473.229 522.787C472.884 522.347 472.726 521.789 472.789 521.233C472.852 520.677 473.13 520.169 473.565 519.817C474.76 518.846 476.011 518.789 477.317 519.649C504.311 537.506 535.58 550.675 571.124 559.156C572.074 559.385 572.961 559.814 573.725 560.414C574.489 561.014 575.111 561.77 575.548 562.63C604.222 619.397 612.455 679.862 580.701 734.723C577.714 739.842 576.78 739.487 577.9 733.659C588.168 680.273 580.271 627.971 554.211 576.752C553.501 575.332 552.4 574.884 550.906 575.407L549.282 576.023C548.602 576.265 548.044 576.765 547.729 577.415C547.415 578.065 547.369 578.814 547.602 579.498Z" fill="black" fill-opacity="0.2"/>
<path d="M484.042 812.612C500.843 743.909 500.283 662.15 472.673 598.771C468.828 589.88 457.832 568.94 439.687 535.952C437.857 532.59 438.847 530.815 442.655 530.629L462.369 529.732C464.076 529.645 465.78 529.983 467.333 530.716C468.886 531.449 470.239 532.554 471.273 533.935C516.076 593.84 529.965 675.991 518.933 750.186C514.602 779.288 502.523 806.168 482.698 830.824C482.378 831.257 481.91 831.556 481.383 831.664C480.857 831.772 480.309 831.683 479.844 831.412C479.38 831.142 479.031 830.709 478.865 830.197C478.7 829.686 478.728 829.131 478.946 828.639C480.962 823.558 482.661 818.216 484.042 812.612Z" fill="black" fill-opacity="0.2"/>
<path d="M416.442 860.303C410.73 837.215 407.612 820.105 407.089 808.972C405.148 767.915 405.689 729.249 408.713 692.973C410.319 674.294 412.503 674.238 415.266 692.805C418.346 713.539 420.082 733.937 428.427 753.27C429.734 756.334 430.928 756.296 432.011 753.158C452.789 691.46 443.94 635.702 431.339 572.715C430.966 570.735 431.47 569.017 432.851 567.56L438.172 561.788C504.536 645.565 484.767 764.982 449.82 857.333C449.111 859.201 447.767 860.135 445.788 860.135L416.442 860.303Z" fill="black" fill-opacity="0.2"/>
<path d="M419.582 971.935C423.539 973.841 424.958 971.618 423.838 965.267C423.39 962.801 423.371 960.504 423.782 958.374C425.948 947.204 426.638 935.847 425.854 924.303L445.68 923.967C448.181 923.929 449.973 925.031 451.056 927.273L460.185 945.99C461.155 947.895 461.211 949.838 460.353 951.818L438.343 1003.43C437.298 1005.86 436.196 1005.88 435.039 1003.48L419.582 971.935Z" fill="black" fill-opacity="0.2"/>
<path d="M361.571 377.82C372.575 371.463 403.045 362.191 403.045 362.191C403.045 362.191 376.36 387.104 368.5 391.645C360.639 396.186 327.313 408.428 327.313 408.428C327.313 408.428 350.567 384.177 361.571 377.82Z" fill="black"/>
</svg>
