<svg width="512" height="240" viewBox="0 0 512 240" fill="none" xmlns="http://www.w3.org/2000/svg">
<mask id="path-1-outside-1_1_110" maskUnits="userSpaceOnUse" x="163.492" y="2.91144" width="187.514" height="194.971" fill="black">
<rect fill="white" x="163.492" y="2.91144" width="187.514" height="194.971"/>
<path fill-rule="evenodd" clip-rule="evenodd" d="M220.531 163.366L182.805 100.21L200.182 69.9069L202.748 68.5292L202.749 65.4302L219.22 36.706L264.229 37.0161L266.293 38.5627L267.326 37.0374L294.692 37.2259L328.017 100.188L315.647 123.948L312.78 126.359L312.779 129.458L294.673 164.238L253.541 163.602L244.939 162.18L238.401 163.576L220.531 163.366ZM286.828 152.61C286.681 152.64 286.499 152.614 286.281 152.532C270.412 146.565 255.739 141.037 242.262 135.948C242.135 135.9 242.01 135.845 241.887 135.784C241.866 135.773 241.848 135.758 241.835 135.738C241.822 135.719 241.814 135.697 241.812 135.673C241.81 135.65 241.814 135.627 241.823 135.605C241.833 135.584 241.848 135.565 241.866 135.551C242.126 135.361 242.385 135.19 242.642 135.041C260.106 124.885 277.568 114.734 295.027 104.588C295.13 104.529 295.236 104.481 295.347 104.446C295.371 104.438 295.395 104.437 295.42 104.441C295.444 104.445 295.467 104.455 295.486 104.469C295.506 104.484 295.522 104.503 295.533 104.524C295.543 104.546 295.549 104.57 295.549 104.595C295.543 104.941 295.512 105.278 295.454 105.606C292.938 119.959 290.235 135.448 287.345 152.073C287.327 152.174 287.24 152.304 287.082 152.463L286.828 152.61ZM256.561 152.21C264.809 152.366 272.668 152.507 280.14 152.633C280.246 152.634 280.249 152.616 280.151 152.579C274.499 150.455 268.778 148.306 262.988 146.134C262.836 146.077 262.693 146.01 262.551 145.943C262.341 145.845 262.134 145.748 261.901 145.684C261.639 145.614 261.372 145.527 261.1 145.424C254.038 142.768 246.958 140.107 239.861 137.442C239.708 137.384 239.545 137.349 239.371 137.337C239.327 137.333 239.288 137.344 239.253 137.369C239.139 137.452 239.04 137.552 238.958 137.667C235.78 142.147 232.603 146.624 229.426 151.099C229.339 151.223 229.283 151.358 229.258 151.504C229.254 151.525 229.255 151.546 229.26 151.566C229.265 151.586 229.274 151.605 229.287 151.621C229.299 151.638 229.315 151.652 229.333 151.662C229.351 151.673 229.371 151.679 229.391 151.682C229.755 151.728 230.149 151.754 230.572 151.761C238.569 151.896 246.43 152.034 254.156 152.177C254.333 152.18 254.508 152.193 254.683 152.206C254.962 152.226 255.239 152.247 255.518 152.229C255.839 152.209 256.187 152.203 256.561 152.21ZM302.338 122.14C302.272 122.251 302.211 122.363 302.155 122.474C298.471 129.826 294.802 137.154 291.151 144.457C291.061 144.637 290.971 144.82 290.881 145.007C290.796 145.183 290.77 145.175 290.805 144.981C292.244 136.756 293.688 128.501 295.138 120.217C295.172 120.026 295.198 119.83 295.217 119.631C295.232 119.475 295.27 119.32 295.309 119.166C295.334 119.062 295.36 118.958 295.379 118.853C296.259 113.847 297.126 108.896 297.978 103.998C298.012 103.804 298.067 103.63 298.142 103.476C298.284 103.179 298.81 103.084 299.114 103.055C303.681 102.609 308.134 102.174 312.474 101.748C312.484 101.747 312.493 101.749 312.502 101.753C312.51 101.757 312.518 101.763 312.523 101.771C312.528 101.779 312.532 101.787 312.532 101.797C312.533 101.806 312.531 101.815 312.526 101.823C310.445 105.922 308.387 110.036 306.353 114.168C305.867 115.155 305.421 116.027 304.984 116.885L304.984 116.885L304.984 116.885C304.336 118.155 303.706 119.391 302.986 120.913C302.881 121.135 302.463 121.93 302.338 122.14ZM203.278 112.081L204.561 114.189L226.77 150.499C226.783 150.519 226.8 150.537 226.82 150.55C226.841 150.563 226.864 150.572 226.888 150.575C226.912 150.578 226.936 150.575 226.959 150.568C226.982 150.56 227.003 150.547 227.021 150.53C227.176 150.379 227.316 150.215 227.443 150.036C230.531 145.7 233.661 141.314 236.834 136.879C237.006 136.639 237.09 136.462 237.086 136.35C237.078 136.158 237.017 136.016 236.902 135.924C224.677 126.196 212.453 116.469 200.229 106.742C200.188 106.71 200.18 106.716 200.204 106.763L200.654 107.621L201.974 109.906L203.278 112.081ZM289.461 56.3163L290.654 58.5544C293.251 63.4091 295.845 68.2582 298.436 73.1017C298.507 73.2333 298.564 73.3277 298.629 73.436C298.705 73.5614 298.792 73.7053 298.924 73.9469C299.943 75.814 300.777 77.4082 301.477 78.7483C301.854 79.4686 302.192 80.1154 302.5 80.6919C305.85 86.9573 309.198 93.2163 312.544 99.4689C312.548 99.475 312.549 99.482 312.549 99.489C312.549 99.496 312.548 99.5029 312.544 99.5091C312.541 99.5153 312.536 99.5206 312.53 99.5244C312.524 99.5283 312.518 99.5306 312.511 99.5312C307.955 99.978 303.396 100.423 298.835 100.867C298.784 100.872 298.735 100.878 298.687 100.884C298.342 100.925 298.077 100.956 298 100.565C296.567 93.3094 295.172 86.275 293.816 79.4616C293.702 78.8887 293.579 78.324 293.456 77.7617L293.456 77.7611L293.456 77.761C293.344 77.2479 293.233 76.7368 293.129 76.2231C293.097 76.0615 293.076 75.8981 293.056 75.7349C293.036 75.5733 293.015 75.412 292.984 75.2527C291.719 68.8054 290.445 62.3595 289.161 55.9149C289.151 55.8653 289.163 55.859 289.196 55.8961C289.306 56.017 289.395 56.1571 289.461 56.3163ZM261.423 83.0374L261.397 83.0227C254.463 79.1219 247.531 75.2219 240.6 71.322C240.327 71.1687 240.039 71.0294 239.735 70.9041C239.711 70.8942 239.685 70.89 239.659 70.8915C239.633 70.8931 239.608 70.9005 239.585 70.9132C239.562 70.9259 239.543 70.9435 239.528 70.9648C239.513 70.9861 239.503 71.0104 239.498 71.0361C239.452 71.3154 239.43 71.5968 239.432 71.8802C239.567 92.4284 239.704 113.03 239.84 133.684C239.84 133.738 239.862 133.79 239.901 133.828C239.939 133.867 239.991 133.888 240.045 133.888C240.173 133.887 240.295 133.853 240.411 133.785C258.382 123.34 276.535 112.787 294.87 102.128C294.902 102.109 294.924 102.082 294.933 102.048C294.959 101.96 294.933 101.893 294.853 101.849C283.708 95.5749 272.564 89.3052 261.423 83.0374ZM237.304 85.9638L237.305 85.9937L237.305 85.9967L237.305 85.9996L237.305 86.0026C237.409 101.66 237.514 117.298 237.64 132.928C237.642 133.148 237.65 133.372 237.664 133.598C237.674 133.768 237.619 133.794 237.498 133.675C237.327 133.508 237.146 133.349 236.956 133.197C224.033 122.896 211.099 112.592 198.154 102.286C197.904 102.087 197.696 101.869 197.529 101.631C197.297 101.3 197.764 100.905 198.007 100.715C209.524 91.7607 222.474 81.6952 236.86 70.5188C236.889 70.4971 236.923 70.4853 236.962 70.4833C237.121 70.4764 237.201 70.5522 237.202 70.7108C237.236 75.7482 237.27 80.7832 237.303 85.8163L237.304 85.8566L237.304 85.9638ZM241.718 69.4391C258.258 78.7402 275.206 88.2719 292.563 98.0341C293.556 98.5926 294.527 99.1471 295.476 99.6975C295.489 99.7048 295.503 99.7084 295.518 99.7077C295.532 99.7071 295.546 99.7023 295.558 99.6938C295.57 99.6854 295.579 99.6738 295.585 99.6603C295.59 99.6468 295.592 99.632 295.589 99.6177C292.394 83.5193 289.228 67.5713 286.088 51.7737C286.028 51.4693 285.824 50.6662 285.437 50.6206C285.207 50.5942 284.986 50.6232 284.773 50.7077C270.509 56.4156 256.309 62.0895 242.173 67.7292C242.111 67.7541 242.029 67.7845 241.936 67.8192C241.516 67.9749 240.863 68.2171 240.712 68.4372C240.669 68.5014 240.651 68.5801 240.665 68.6566C240.678 68.733 240.72 68.8012 240.783 68.8467C241.043 69.0371 241.354 69.2346 241.718 69.4391ZM280.538 49.891C280.591 49.8902 280.622 49.8908 280.632 49.8928C280.742 49.9108 280.745 49.9405 280.642 49.9819C266.778 55.5321 252.871 61.0984 238.924 66.6808C238.412 66.8848 238.164 66.4991 237.882 66.0608C237.864 66.0323 237.845 66.0035 237.826 65.9746C234.385 60.6805 231.06 55.5691 227.854 50.6404C227.841 50.6207 227.833 50.5985 227.829 50.5752C227.825 50.552 227.826 50.5282 227.832 50.5053C227.837 50.4825 227.848 50.461 227.862 50.4423C227.876 50.4236 227.894 50.408 227.915 50.3966C228.029 50.3334 228.168 50.3011 228.331 50.2997C245.036 50.1955 262.439 50.0593 280.538 49.891ZM225.702 51.5388C225.469 51.6467 225.281 51.7835 225.138 51.9492L199.313 96.8402C199.246 96.9569 199.265 96.9737 199.371 96.8907C211.512 87.435 223.684 77.962 235.886 68.4715C236.049 68.3449 236.19 68.2094 236.31 68.065C236.339 68.0295 236.352 67.9885 236.349 67.942C236.337 67.8017 236.295 67.6759 236.223 67.5646C232.76 62.2403 229.308 56.9246 225.866 51.6175C225.793 51.5483 225.738 51.5221 225.702 51.5388Z"/>
</mask>
<path fill-rule="evenodd" clip-rule="evenodd" d="M220.531 163.366L182.805 100.21L200.182 69.9069L202.748 68.5292L202.749 65.4302L219.22 36.706L264.229 37.0161L266.293 38.5627L267.326 37.0374L294.692 37.2259L328.017 100.188L315.647 123.948L312.78 126.359L312.779 129.458L294.673 164.238L253.541 163.602L244.939 162.18L238.401 163.576L220.531 163.366ZM286.828 152.61C286.681 152.64 286.499 152.614 286.281 152.532C270.412 146.565 255.739 141.037 242.262 135.948C242.135 135.9 242.01 135.845 241.887 135.784C241.866 135.773 241.848 135.758 241.835 135.738C241.822 135.719 241.814 135.697 241.812 135.673C241.81 135.65 241.814 135.627 241.823 135.605C241.833 135.584 241.848 135.565 241.866 135.551C242.126 135.361 242.385 135.19 242.642 135.041C260.106 124.885 277.568 114.734 295.027 104.588C295.13 104.529 295.236 104.481 295.347 104.446C295.371 104.438 295.395 104.437 295.42 104.441C295.444 104.445 295.467 104.455 295.486 104.469C295.506 104.484 295.522 104.503 295.533 104.524C295.543 104.546 295.549 104.57 295.549 104.595C295.543 104.941 295.512 105.278 295.454 105.606C292.938 119.959 290.235 135.448 287.345 152.073C287.327 152.174 287.24 152.304 287.082 152.463L286.828 152.61ZM256.561 152.21C264.809 152.366 272.668 152.507 280.14 152.633C280.246 152.634 280.249 152.616 280.151 152.579C274.499 150.455 268.778 148.306 262.988 146.134C262.836 146.077 262.693 146.01 262.551 145.943C262.341 145.845 262.134 145.748 261.901 145.684C261.639 145.614 261.372 145.527 261.1 145.424C254.038 142.768 246.958 140.107 239.861 137.442C239.708 137.384 239.545 137.349 239.371 137.337C239.327 137.333 239.288 137.344 239.253 137.369C239.139 137.452 239.04 137.552 238.958 137.667C235.78 142.147 232.603 146.624 229.426 151.099C229.339 151.223 229.283 151.358 229.258 151.504C229.254 151.525 229.255 151.546 229.26 151.566C229.265 151.586 229.274 151.605 229.287 151.621C229.299 151.638 229.315 151.652 229.333 151.662C229.351 151.673 229.371 151.679 229.391 151.682C229.755 151.728 230.149 151.754 230.572 151.761C238.569 151.896 246.43 152.034 254.156 152.177C254.333 152.18 254.508 152.193 254.683 152.206C254.962 152.226 255.239 152.247 255.518 152.229C255.839 152.209 256.187 152.203 256.561 152.21ZM302.338 122.14C302.272 122.251 302.211 122.363 302.155 122.474C298.471 129.826 294.802 137.154 291.151 144.457C291.061 144.637 290.971 144.82 290.881 145.007C290.796 145.183 290.77 145.175 290.805 144.981C292.244 136.756 293.688 128.501 295.138 120.217C295.172 120.026 295.198 119.83 295.217 119.631C295.232 119.475 295.27 119.32 295.309 119.166C295.334 119.062 295.36 118.958 295.379 118.853C296.259 113.847 297.126 108.896 297.978 103.998C298.012 103.804 298.067 103.63 298.142 103.476C298.284 103.179 298.81 103.084 299.114 103.055C303.681 102.609 308.134 102.174 312.474 101.748C312.484 101.747 312.493 101.749 312.502 101.753C312.51 101.757 312.518 101.763 312.523 101.771C312.528 101.779 312.532 101.787 312.532 101.797C312.533 101.806 312.531 101.815 312.526 101.823C310.445 105.922 308.387 110.036 306.353 114.168C305.867 115.155 305.421 116.027 304.984 116.885L304.984 116.885L304.984 116.885C304.336 118.155 303.706 119.391 302.986 120.913C302.881 121.135 302.463 121.93 302.338 122.14ZM203.278 112.081L204.561 114.189L226.77 150.499C226.783 150.519 226.8 150.537 226.82 150.55C226.841 150.563 226.864 150.572 226.888 150.575C226.912 150.578 226.936 150.575 226.959 150.568C226.982 150.56 227.003 150.547 227.021 150.53C227.176 150.379 227.316 150.215 227.443 150.036C230.531 145.7 233.661 141.314 236.834 136.879C237.006 136.639 237.09 136.462 237.086 136.35C237.078 136.158 237.017 136.016 236.902 135.924C224.677 126.196 212.453 116.469 200.229 106.742C200.188 106.71 200.18 106.716 200.204 106.763L200.654 107.621L201.974 109.906L203.278 112.081ZM289.461 56.3163L290.654 58.5544C293.251 63.4091 295.845 68.2582 298.436 73.1017C298.507 73.2333 298.564 73.3277 298.629 73.436C298.705 73.5614 298.792 73.7053 298.924 73.9469C299.943 75.814 300.777 77.4082 301.477 78.7483C301.854 79.4686 302.192 80.1154 302.5 80.6919C305.85 86.9573 309.198 93.2163 312.544 99.4689C312.548 99.475 312.549 99.482 312.549 99.489C312.549 99.496 312.548 99.5029 312.544 99.5091C312.541 99.5153 312.536 99.5206 312.53 99.5244C312.524 99.5283 312.518 99.5306 312.511 99.5312C307.955 99.978 303.396 100.423 298.835 100.867C298.784 100.872 298.735 100.878 298.687 100.884C298.342 100.925 298.077 100.956 298 100.565C296.567 93.3094 295.172 86.275 293.816 79.4616C293.702 78.8887 293.579 78.324 293.456 77.7617L293.456 77.7611L293.456 77.761C293.344 77.2479 293.233 76.7368 293.129 76.2231C293.097 76.0615 293.076 75.8981 293.056 75.7349C293.036 75.5733 293.015 75.412 292.984 75.2527C291.719 68.8054 290.445 62.3595 289.161 55.9149C289.151 55.8653 289.163 55.859 289.196 55.8961C289.306 56.017 289.395 56.1571 289.461 56.3163ZM261.423 83.0374L261.397 83.0227C254.463 79.1219 247.531 75.2219 240.6 71.322C240.327 71.1687 240.039 71.0294 239.735 70.9041C239.711 70.8942 239.685 70.89 239.659 70.8915C239.633 70.8931 239.608 70.9005 239.585 70.9132C239.562 70.9259 239.543 70.9435 239.528 70.9648C239.513 70.9861 239.503 71.0104 239.498 71.0361C239.452 71.3154 239.43 71.5968 239.432 71.8802C239.567 92.4284 239.704 113.03 239.84 133.684C239.84 133.738 239.862 133.79 239.901 133.828C239.939 133.867 239.991 133.888 240.045 133.888C240.173 133.887 240.295 133.853 240.411 133.785C258.382 123.34 276.535 112.787 294.87 102.128C294.902 102.109 294.924 102.082 294.933 102.048C294.959 101.96 294.933 101.893 294.853 101.849C283.708 95.5749 272.564 89.3052 261.423 83.0374ZM237.304 85.9638L237.305 85.9937L237.305 85.9967L237.305 85.9996L237.305 86.0026C237.409 101.66 237.514 117.298 237.64 132.928C237.642 133.148 237.65 133.372 237.664 133.598C237.674 133.768 237.619 133.794 237.498 133.675C237.327 133.508 237.146 133.349 236.956 133.197C224.033 122.896 211.099 112.592 198.154 102.286C197.904 102.087 197.696 101.869 197.529 101.631C197.297 101.3 197.764 100.905 198.007 100.715C209.524 91.7607 222.474 81.6952 236.86 70.5188C236.889 70.4971 236.923 70.4853 236.962 70.4833C237.121 70.4764 237.201 70.5522 237.202 70.7108C237.236 75.7482 237.27 80.7832 237.303 85.8163L237.304 85.8566L237.304 85.9638ZM241.718 69.4391C258.258 78.7402 275.206 88.2719 292.563 98.0341C293.556 98.5926 294.527 99.1471 295.476 99.6975C295.489 99.7048 295.503 99.7084 295.518 99.7077C295.532 99.7071 295.546 99.7023 295.558 99.6938C295.57 99.6854 295.579 99.6738 295.585 99.6603C295.59 99.6468 295.592 99.632 295.589 99.6177C292.394 83.5193 289.228 67.5713 286.088 51.7737C286.028 51.4693 285.824 50.6662 285.437 50.6206C285.207 50.5942 284.986 50.6232 284.773 50.7077C270.509 56.4156 256.309 62.0895 242.173 67.7292C242.111 67.7541 242.029 67.7845 241.936 67.8192C241.516 67.9749 240.863 68.2171 240.712 68.4372C240.669 68.5014 240.651 68.5801 240.665 68.6566C240.678 68.733 240.72 68.8012 240.783 68.8467C241.043 69.0371 241.354 69.2346 241.718 69.4391ZM280.538 49.891C280.591 49.8902 280.622 49.8908 280.632 49.8928C280.742 49.9108 280.745 49.9405 280.642 49.9819C266.778 55.5321 252.871 61.0984 238.924 66.6808C238.412 66.8848 238.164 66.4991 237.882 66.0608C237.864 66.0323 237.845 66.0035 237.826 65.9746C234.385 60.6805 231.06 55.5691 227.854 50.6404C227.841 50.6207 227.833 50.5985 227.829 50.5752C227.825 50.552 227.826 50.5282 227.832 50.5053C227.837 50.4825 227.848 50.461 227.862 50.4423C227.876 50.4236 227.894 50.408 227.915 50.3966C228.029 50.3334 228.168 50.3011 228.331 50.2997C245.036 50.1955 262.439 50.0593 280.538 49.891ZM225.702 51.5388C225.469 51.6467 225.281 51.7835 225.138 51.9492L199.313 96.8402C199.246 96.9569 199.265 96.9737 199.371 96.8907C211.512 87.435 223.684 77.962 235.886 68.4715C236.049 68.3449 236.19 68.2094 236.31 68.065C236.339 68.0295 236.352 67.9885 236.349 67.942C236.337 67.8017 236.295 67.6759 236.223 67.5646C232.76 62.2403 229.308 56.9246 225.866 51.6175C225.793 51.5483 225.738 51.5221 225.702 51.5388Z" fill="#DD6E00"/>
<path fill-rule="evenodd" clip-rule="evenodd" d="M220.531 163.366L182.805 100.21L200.182 69.9069L202.748 68.5292L202.749 65.4302L219.22 36.706L264.229 37.0161L266.293 38.5627L267.326 37.0374L294.692 37.2259L328.017 100.188L315.647 123.948L312.78 126.359L312.779 129.458L294.673 164.238L253.541 163.602L244.939 162.18L238.401 163.576L220.531 163.366ZM286.828 152.61C286.681 152.64 286.499 152.614 286.281 152.532C270.412 146.565 255.739 141.037 242.262 135.948C242.135 135.9 242.01 135.845 241.887 135.784C241.866 135.773 241.848 135.758 241.835 135.738C241.822 135.719 241.814 135.697 241.812 135.673C241.81 135.65 241.814 135.627 241.823 135.605C241.833 135.584 241.848 135.565 241.866 135.551C242.126 135.361 242.385 135.19 242.642 135.041C260.106 124.885 277.568 114.734 295.027 104.588C295.13 104.529 295.236 104.481 295.347 104.446C295.371 104.438 295.395 104.437 295.42 104.441C295.444 104.445 295.467 104.455 295.486 104.469C295.506 104.484 295.522 104.503 295.533 104.524C295.543 104.546 295.549 104.57 295.549 104.595C295.543 104.941 295.512 105.278 295.454 105.606C292.938 119.959 290.235 135.448 287.345 152.073C287.327 152.174 287.24 152.304 287.082 152.463L286.828 152.61ZM256.561 152.21C264.809 152.366 272.668 152.507 280.14 152.633C280.246 152.634 280.249 152.616 280.151 152.579C274.499 150.455 268.778 148.306 262.988 146.134C262.836 146.077 262.693 146.01 262.551 145.943C262.341 145.845 262.134 145.748 261.901 145.684C261.639 145.614 261.372 145.527 261.1 145.424C254.038 142.768 246.958 140.107 239.861 137.442C239.708 137.384 239.545 137.349 239.371 137.337C239.327 137.333 239.288 137.344 239.253 137.369C239.139 137.452 239.04 137.552 238.958 137.667C235.78 142.147 232.603 146.624 229.426 151.099C229.339 151.223 229.283 151.358 229.258 151.504C229.254 151.525 229.255 151.546 229.26 151.566C229.265 151.586 229.274 151.605 229.287 151.621C229.299 151.638 229.315 151.652 229.333 151.662C229.351 151.673 229.371 151.679 229.391 151.682C229.755 151.728 230.149 151.754 230.572 151.761C238.569 151.896 246.43 152.034 254.156 152.177C254.333 152.18 254.508 152.193 254.683 152.206C254.962 152.226 255.239 152.247 255.518 152.229C255.839 152.209 256.187 152.203 256.561 152.21ZM302.338 122.14C302.272 122.251 302.211 122.363 302.155 122.474C298.471 129.826 294.802 137.154 291.151 144.457C291.061 144.637 290.971 144.82 290.881 145.007C290.796 145.183 290.77 145.175 290.805 144.981C292.244 136.756 293.688 128.501 295.138 120.217C295.172 120.026 295.198 119.83 295.217 119.631C295.232 119.475 295.27 119.32 295.309 119.166C295.334 119.062 295.36 118.958 295.379 118.853C296.259 113.847 297.126 108.896 297.978 103.998C298.012 103.804 298.067 103.63 298.142 103.476C298.284 103.179 298.81 103.084 299.114 103.055C303.681 102.609 308.134 102.174 312.474 101.748C312.484 101.747 312.493 101.749 312.502 101.753C312.51 101.757 312.518 101.763 312.523 101.771C312.528 101.779 312.532 101.787 312.532 101.797C312.533 101.806 312.531 101.815 312.526 101.823C310.445 105.922 308.387 110.036 306.353 114.168C305.867 115.155 305.421 116.027 304.984 116.885L304.984 116.885L304.984 116.885C304.336 118.155 303.706 119.391 302.986 120.913C302.881 121.135 302.463 121.93 302.338 122.14ZM203.278 112.081L204.561 114.189L226.77 150.499C226.783 150.519 226.8 150.537 226.82 150.55C226.841 150.563 226.864 150.572 226.888 150.575C226.912 150.578 226.936 150.575 226.959 150.568C226.982 150.56 227.003 150.547 227.021 150.53C227.176 150.379 227.316 150.215 227.443 150.036C230.531 145.7 233.661 141.314 236.834 136.879C237.006 136.639 237.09 136.462 237.086 136.35C237.078 136.158 237.017 136.016 236.902 135.924C224.677 126.196 212.453 116.469 200.229 106.742C200.188 106.71 200.18 106.716 200.204 106.763L200.654 107.621L201.974 109.906L203.278 112.081ZM289.461 56.3163L290.654 58.5544C293.251 63.4091 295.845 68.2582 298.436 73.1017C298.507 73.2333 298.564 73.3277 298.629 73.436C298.705 73.5614 298.792 73.7053 298.924 73.9469C299.943 75.814 300.777 77.4082 301.477 78.7483C301.854 79.4686 302.192 80.1154 302.5 80.6919C305.85 86.9573 309.198 93.2163 312.544 99.4689C312.548 99.475 312.549 99.482 312.549 99.489C312.549 99.496 312.548 99.5029 312.544 99.5091C312.541 99.5153 312.536 99.5206 312.53 99.5244C312.524 99.5283 312.518 99.5306 312.511 99.5312C307.955 99.978 303.396 100.423 298.835 100.867C298.784 100.872 298.735 100.878 298.687 100.884C298.342 100.925 298.077 100.956 298 100.565C296.567 93.3094 295.172 86.275 293.816 79.4616C293.702 78.8887 293.579 78.324 293.456 77.7617L293.456 77.7611L293.456 77.761C293.344 77.2479 293.233 76.7368 293.129 76.2231C293.097 76.0615 293.076 75.8981 293.056 75.7349C293.036 75.5733 293.015 75.412 292.984 75.2527C291.719 68.8054 290.445 62.3595 289.161 55.9149C289.151 55.8653 289.163 55.859 289.196 55.8961C289.306 56.017 289.395 56.1571 289.461 56.3163ZM261.423 83.0374L261.397 83.0227C254.463 79.1219 247.531 75.2219 240.6 71.322C240.327 71.1687 240.039 71.0294 239.735 70.9041C239.711 70.8942 239.685 70.89 239.659 70.8915C239.633 70.8931 239.608 70.9005 239.585 70.9132C239.562 70.9259 239.543 70.9435 239.528 70.9648C239.513 70.9861 239.503 71.0104 239.498 71.0361C239.452 71.3154 239.43 71.5968 239.432 71.8802C239.567 92.4284 239.704 113.03 239.84 133.684C239.84 133.738 239.862 133.79 239.901 133.828C239.939 133.867 239.991 133.888 240.045 133.888C240.173 133.887 240.295 133.853 240.411 133.785C258.382 123.34 276.535 112.787 294.87 102.128C294.902 102.109 294.924 102.082 294.933 102.048C294.959 101.96 294.933 101.893 294.853 101.849C283.708 95.5749 272.564 89.3052 261.423 83.0374ZM237.304 85.9638L237.305 85.9937L237.305 85.9967L237.305 85.9996L237.305 86.0026C237.409 101.66 237.514 117.298 237.64 132.928C237.642 133.148 237.65 133.372 237.664 133.598C237.674 133.768 237.619 133.794 237.498 133.675C237.327 133.508 237.146 133.349 236.956 133.197C224.033 122.896 211.099 112.592 198.154 102.286C197.904 102.087 197.696 101.869 197.529 101.631C197.297 101.3 197.764 100.905 198.007 100.715C209.524 91.7607 222.474 81.6952 236.86 70.5188C236.889 70.4971 236.923 70.4853 236.962 70.4833C237.121 70.4764 237.201 70.5522 237.202 70.7108C237.236 75.7482 237.27 80.7832 237.303 85.8163L237.304 85.8566L237.304 85.9638ZM241.718 69.4391C258.258 78.7402 275.206 88.2719 292.563 98.0341C293.556 98.5926 294.527 99.1471 295.476 99.6975C295.489 99.7048 295.503 99.7084 295.518 99.7077C295.532 99.7071 295.546 99.7023 295.558 99.6938C295.57 99.6854 295.579 99.6738 295.585 99.6603C295.59 99.6468 295.592 99.632 295.589 99.6177C292.394 83.5193 289.228 67.5713 286.088 51.7737C286.028 51.4693 285.824 50.6662 285.437 50.6206C285.207 50.5942 284.986 50.6232 284.773 50.7077C270.509 56.4156 256.309 62.0895 242.173 67.7292C242.111 67.7541 242.029 67.7845 241.936 67.8192C241.516 67.9749 240.863 68.2171 240.712 68.4372C240.669 68.5014 240.651 68.5801 240.665 68.6566C240.678 68.733 240.72 68.8012 240.783 68.8467C241.043 69.0371 241.354 69.2346 241.718 69.4391ZM280.538 49.891C280.591 49.8902 280.622 49.8908 280.632 49.8928C280.742 49.9108 280.745 49.9405 280.642 49.9819C266.778 55.5321 252.871 61.0984 238.924 66.6808C238.412 66.8848 238.164 66.4991 237.882 66.0608C237.864 66.0323 237.845 66.0035 237.826 65.9746C234.385 60.6805 231.06 55.5691 227.854 50.6404C227.841 50.6207 227.833 50.5985 227.829 50.5752C227.825 50.552 227.826 50.5282 227.832 50.5053C227.837 50.4825 227.848 50.461 227.862 50.4423C227.876 50.4236 227.894 50.408 227.915 50.3966C228.029 50.3334 228.168 50.3011 228.331 50.2997C245.036 50.1955 262.439 50.0593 280.538 49.891ZM225.702 51.5388C225.469 51.6467 225.281 51.7835 225.138 51.9492L199.313 96.8402C199.246 96.9569 199.265 96.9737 199.371 96.8907C211.512 87.435 223.684 77.962 235.886 68.4715C236.049 68.3449 236.19 68.2094 236.31 68.065C236.339 68.0295 236.352 67.9885 236.349 67.942C236.337 67.8017 236.295 67.6759 236.223 67.5646C232.76 62.2403 229.308 56.9246 225.866 51.6175C225.793 51.5483 225.738 51.5221 225.702 51.5388Z" stroke="#DD6E00" mask="url(#path-1-outside-1_1_110)"/>
<path d="M301.91 121.892L301.909 121.892C301.838 122.013 301.771 122.134 301.709 122.256L301.709 122.257C298.407 128.847 295.118 135.416 291.842 141.966L295.631 120.311C295.667 120.107 295.696 119.898 295.716 119.686C295.725 119.593 295.746 119.493 295.777 119.367C295.782 119.346 295.787 119.324 295.793 119.301C295.819 119.196 295.85 119.071 295.872 118.948L295.872 118.948C296.753 113.942 297.62 108.99 298.472 104.092C298.498 103.943 298.538 103.819 298.586 103.716C298.589 103.714 298.592 103.712 298.596 103.709C298.621 103.691 298.665 103.669 298.731 103.646C298.865 103.6 299.029 103.574 299.163 103.561L299.164 103.561C303.446 103.143 307.629 102.734 311.712 102.334C309.756 106.193 307.82 110.066 305.905 113.955C305.426 114.927 304.983 115.796 304.546 116.653C303.894 117.931 303.256 119.181 302.535 120.706C302.435 120.917 302.025 121.698 301.91 121.892Z" fill="#DD6E00" fill-opacity="0.2" stroke="#DD6E00"/>
<path d="M293.469 75.161C292.404 69.7335 291.333 64.307 290.255 58.8813C292.836 63.7073 295.414 68.5278 297.991 73.3427L297.991 73.3427C298.068 73.4862 298.131 73.5908 298.196 73.6988L298.212 73.7255C298.283 73.8415 298.362 73.9751 298.481 74.1916C299.499 76.0565 300.326 77.6398 301.025 78.9767C301.403 79.6989 301.742 80.3492 302.054 80.9331L302.055 80.9332C305.297 86.9971 308.537 93.0549 311.776 99.1068C307.447 99.5312 303.115 99.9544 298.781 100.376L298.781 100.376C298.725 100.382 298.672 100.388 298.625 100.394L298.619 100.394C298.569 100.4 298.528 100.405 298.49 100.409C298.484 100.409 298.478 100.41 298.472 100.41C297.044 93.1768 295.653 86.1633 294.301 79.3693C294.191 78.8161 294.073 78.2714 293.955 77.7337L293.94 77.6615C293.828 77.1473 293.717 76.6395 293.614 76.1297C293.586 75.9896 293.568 75.845 293.547 75.68L293.546 75.6703C293.526 75.5136 293.504 75.3376 293.469 75.161Z" fill="#DD6E00" fill-opacity="0.2" stroke="#DD6E00"/>
<path d="M252.037 110.31C251.587 110.614 251.479 110.521 251.715 110.031C252.774 107.831 253.624 105.615 254.265 103.385C254.699 101.871 254.487 100.447 253.626 99.1109C253.334 98.6565 252.988 98.3262 252.587 98.1198C249.733 96.6557 245.889 99.9813 244.087 101.889C244.049 101.93 244.023 101.98 244.012 102.035C244.001 102.089 244.005 102.146 244.024 102.199C244.31 102.999 244.653 103.797 245.053 104.591C245.065 104.615 245.084 104.636 245.107 104.652C245.13 104.667 245.157 104.675 245.184 104.677C245.212 104.678 245.239 104.672 245.264 104.659C245.288 104.647 245.309 104.628 245.323 104.604C246.149 103.302 247.639 101.251 249.306 101.131C250.252 101.062 250.877 101.65 251.165 102.517C251.493 103.505 251.279 104.408 250.922 105.354C250.077 107.602 249.143 109.955 248.121 112.412C248.089 112.49 248.088 112.571 248.119 112.656C248.407 113.43 248.711 114.211 249.032 114.999C249.037 115.012 249.044 115.023 249.054 115.032C249.064 115.041 249.075 115.048 249.088 115.052C249.1 115.056 249.114 115.058 249.127 115.056C249.14 115.055 249.153 115.051 249.165 115.044L258.101 109.879C258.121 109.867 258.136 109.849 258.143 109.828C258.15 109.806 258.149 109.782 258.141 109.762L257.179 107.511C257.173 107.498 257.165 107.486 257.155 107.477C257.145 107.467 257.133 107.46 257.12 107.455C257.107 107.451 257.093 107.449 257.079 107.45C257.066 107.452 257.052 107.456 257.04 107.462C256.375 107.828 255.73 108.172 255.104 108.493C254.058 109.03 253.036 109.635 252.037 110.31Z" fill="#DD6E00" stroke="#DD6E00" stroke-width="2"/>
<path fill-rule="evenodd" clip-rule="evenodd" d="M269.306 98.1967C269.809 99.3351 269.914 100.507 269.621 101.713C269.602 101.792 269.587 101.87 269.571 101.948C269.536 102.13 269.5 102.309 269.422 102.484C268.706 104.058 267.302 104.945 265.635 105.537C265.175 105.701 264.713 105.791 264.25 105.807C261.211 105.912 259.252 104.022 257.711 101.565C257.096 100.583 256.661 99.7636 256.408 99.1074C255.624 97.0851 255.79 94.8568 257.468 93.3455C258.869 92.0838 260.473 91.492 262.28 91.5702C263.037 91.6038 263.865 91.896 264.763 92.447C266.798 93.6936 268.33 95.9887 269.306 98.1967ZM265.242 102.963C264.121 103.41 263.005 102.508 262.3 101.681C261.406 100.632 260.564 99.3712 259.776 97.8988C259.13 96.6961 258.612 95.24 260.184 94.4393C261.58 93.7268 262.885 94.9913 263.66 95.9816C264.406 96.9336 265.109 98.0053 265.769 99.1968C266.503 100.521 267.17 102.194 265.242 102.963Z" fill="#DD6E00" stroke="#DD6E00" stroke-width="2"/>
<path d="M510.926 151.588L512 161.615L509.674 167.703L499.833 167.882L493.75 167.524L493.928 153.557L493.75 136.547L493.928 119.358L494.465 118.462L493.928 115.06L493.75 96.4386L490.887 91.6041L488.382 88.9183L485.877 84.9791L480.688 78.7121L473.352 68.5059L468.7 62.0599V71.7289L466.195 78.1749L466.374 78.533L468.521 80.8608L468.163 121.685L467.269 128.131L468.879 134.936L468.7 153.557L469.237 156.064L468.879 167.524L458.322 167.882L450.629 166.449L451.881 152.125L451.344 150.513V147.469L452.418 122.044L453.849 116.851L452.239 113.27L452.955 76.0263L452.239 65.8201L451.523 47.1983V37.8874L465.658 33.9482L481.762 56.1511L486.235 63.3133L487.666 64.0296L493.571 73.6986V58.2998L495.36 52.749L493.571 50.2423V35.9178L503.948 35.7388L511.284 36.9922L510.926 49.1679L509.137 93.2156L507.706 100.736L509.674 106.645L510.926 145.858V151.588Z" fill="#026270"/>
<path d="M411.052 89.4556L409.8 84.9792L409.263 49.1681L410.695 45.9451L409.084 45.0498L408.19 36.097L416.599 35.5598L428.229 36.2761L427.335 49.3471L426.44 53.8235L425.903 77.2798L425.366 86.4116L426.082 93.3948L426.44 97.8712L424.83 101.631L426.798 102.885V152.483L427.156 155.169L427.514 158.571L427.335 165.196L419.462 167.703L415.705 167.524L407.474 167.345L409.979 151.409L412.126 147.828L409.979 144.784V138.338V104.854L410.516 99.3036L411.052 89.4556Z" fill="#026270"/>
<path d="M366.95 150.334L354.962 169.314L349.058 167.703L337.427 166.091L337.785 154.095V154.274L338.859 114.165L337.785 107.182L337.606 60.2695L339.396 56.8674L337.606 54.5397L337.07 45.2288L336.891 38.6038L344.585 36.276L354.068 33.4112L365.161 48.6309L367.129 54.5397L373.391 60.8067L378.044 69.0432L391.642 87.1278L391.463 86.7697L394.684 90.888L394.863 103.959L391.642 109.331L373.213 137.622L366.95 150.334ZM353.71 83.3677L351.026 91.4252L353.889 99.8408L353.173 135.294L352.994 144.963L353.173 144.605L361.046 131.892L364.266 130.28L362.835 128.669L370.35 114.165L376.254 104.317L379.475 99.1246L376.254 94.2901L375.539 89.9927L371.96 87.1278L354.246 58.658L353.173 57.4046L353.71 83.3677Z" fill="#026270"/>
<path d="M431.073 235.73L426.531 240L424.26 239.38L422.058 238.898L422.677 230.152L422.402 226.571V215.759L422.815 212.109L422.539 204.12L422.264 195.925L422.471 193.17L422.264 192.344L422.127 191.517L421.989 188.969L425.98 187.385L435.202 195.787L439.744 199.506L440.432 200.057L440.226 203.087L436.165 207.563L430.178 213.004L430.385 213.279L432.656 215.345L434.238 216.654L441.189 222.783L441.808 223.472L441.327 226.64L438.78 229.394L435.89 231.805L433.344 233.733L432.174 234.766L431.073 235.73ZM429.077 215.896L427.15 214.45L427.288 212.109L432.931 206.806L433.757 206.737L434.72 204.946L437.473 201.985V201.71L434.789 199.368L433.137 197.715L425.567 191.035H425.43L425.361 191.517L425.292 196.062V200.539L425.017 204.464L425.086 206.599L425.155 208.665L425.567 209.492L425.223 214.45L425.499 218.031L425.567 227.191L424.948 227.604L425.636 229.601L425.567 234.422L425.98 236.625H426.049L431.967 232.149L433.963 230.014L435.064 229.394L437.679 226.502L437.955 225.882L438.643 225.056L437.198 223.541L435.615 221.888L433.757 220.028L429.077 215.896Z" fill="#026270"/>
<path d="M391.235 228.086L391.166 218.169L390.753 210.18L390.822 205.153L391.373 203.294L390.96 200.677L390.616 189.382L390.96 188.349L394.401 188.487L394.332 193.032L394.057 195.374V198.955L394.125 199.713V200.883L393.575 203.845L393.644 208.459L393.712 209.216L393.919 214.726L393.3 223.61L393.85 232.493L394.125 234.353L395.983 235.868L397.153 236.075L398.117 235.73L399.975 234.973L403.072 233.871H403.003L403.347 233.664L405.756 232.287H405.687L407.476 231.254L407.889 225.951L408.095 216.31L407.82 211.764L407.545 207.219L407.682 201.365L408.233 200.401L408.026 200.332H408.095L407.614 200.057L407.338 191.793L407.476 188.487L409.472 188.418L410.986 188.487L411.261 190.278L411.054 193.446L410.297 194.134L410.573 194.823L410.917 195.512L410.435 200.126L410.229 204.878V206.393L410.16 208.321L410.642 209.836L410.435 226.089L410.848 234.766L411.536 238.829L408.302 239.38L407.958 237.521L407.614 235.524L406.788 234.697L399.011 238.278L397.222 239.311L393.988 239.243L390.891 236.557L390.822 233.733L391.235 228.086Z" fill="#026270"/>
<path d="M374.565 214.381L372.638 216.998L369.129 220.855L368.303 222.921L368.441 228.086V229.394L367.89 230.152H367.821L368.441 230.29L368.922 239.036L367.477 239.174L365.068 238.967L365.825 227.81L365.481 226.089L365.55 207.632L366.101 206.461L365.688 206.53V195.58L365.55 193.79L365.413 192.344L365.275 188.831L367.408 187.729L368.165 187.592L374.634 193.721L375.322 194.961L378.488 197.509L383.512 202.123L383.305 205.428L380.896 207.563L379.589 209.078L378.213 210.593L376.699 212.04L374.565 214.381ZM368.441 212.591L368.509 213.486L368.372 216.241L368.578 217.205L368.716 217.136L371.95 213.899L374.084 211.695L376.355 209.147L377.8 207.288L378.281 206.668L380.484 204.258L380.552 203.844V203.5L378.694 201.641L376.148 199.161L375.185 198.266L374.978 197.578L374.084 197.371L368.716 192.137L368.578 193.17L368.165 200.539L368.234 203.844L368.303 205.497V207.081L368.441 212.591Z" fill="#026270"/>
<path d="M346.98 187.936L348.081 191.104L352.141 200.332L352.829 202.88L353.311 203.5H353.793L355.1 206.875L357.853 211.833L357.646 214.863L354.274 221.957L351.59 227.397L347.668 237.039L346.911 239.036L346.36 239.656L343.47 239.243L343.332 237.865L340.442 231.392L340.167 228.637H339.134L337.621 225.125L336.244 222.095L334.937 218.995L333.147 215.001L332.734 212.591L333.354 211.902L337.552 202.261L338.515 201.297L338.584 200.677V200.332L338.653 200.126L342.988 190.209L343.332 189.52L343.745 188.281L344.502 188.143L346.98 187.936ZM345.879 234.56L349.801 225.538L350.902 224.643L351.384 222.852L354.618 213.555L354.343 212.729L353.93 210.731L353.38 210.249L353.104 209.561L352.416 208.321L347.943 197.991L348.356 197.096H348.081L347.668 197.027L345.535 192.481L345.122 192.137L345.053 192.275L344.984 192.757L343.952 195.03L339.616 203.225L338.722 203.845H338.79L338.584 205.773L336.038 211.833L335.969 212.109V212.453L335.9 213.004L336.038 213.279L336.313 213.899L337.139 215.965L337.208 216.172L338.928 220.648L340.993 224.987L343.47 230.359L345.259 234.973L345.397 234.904L345.947 234.56H345.879Z" fill="#026270"/>
<path d="M317.96 232.769L313.211 239.587L312.316 239.242L310.871 239.174L309.426 239.105L309.701 235.524L309.977 218.789L309.701 215.965L309.426 196.682L309.633 194.823L309.151 193.859L309.013 190.071L308.944 188.556L311.009 187.936L312.041 187.454L313.486 189.382L315.689 192.137L316.308 193.377L316.514 193.583L317.409 194.616L319.336 197.371L319.542 198.748L322.089 201.434L328.42 210.043L329.314 210.869V214.45L328.351 216.103L325.185 220.51L324.084 221.061H324.153L324.291 221.475L324.497 221.819L320.437 228.017L317.96 232.769ZM312.592 205.704L311.972 207.357L312.316 210.249L312.729 213.004L312.179 227.122L312.248 228.568L312.316 230.772L312.592 234.215L312.729 235.042L312.867 234.973L315.138 231.598L316.239 230.221L317.891 227.535L318.923 226.295L322.708 219.891L325.461 215.896L326.699 213.279L326.149 212.109L325.392 211.007L324.841 210.111L322.983 207.081L320.643 204.395L316.652 198.817L312.11 192.55L312.179 193.514L312.248 194.823L312.523 199.712L312.592 205.704Z" fill="#026270"/>
<path d="M278.466 228.086L278.397 218.169L277.984 210.18L278.053 205.153L278.604 203.294L278.191 200.677L277.847 189.382L278.191 188.349L281.631 188.487L281.563 193.032L281.287 195.374V198.955L281.356 199.713V200.883L280.806 203.845L280.874 208.459L280.943 209.216L281.15 214.726L280.53 223.61L281.081 232.493L281.356 234.353L283.214 235.868L284.384 236.075L285.348 235.73L287.206 234.973L290.302 233.871H290.234L290.578 233.664L292.986 232.287H292.918L294.707 231.254L295.12 225.951L295.326 216.31L295.051 211.764L294.776 207.219L294.913 201.365L295.464 200.401L295.257 200.332H295.326L294.844 200.057L294.569 191.793L294.707 188.487L296.702 188.418L298.216 188.487L298.492 190.278L298.285 193.446L297.528 194.134L297.804 194.823L298.148 195.512L297.666 200.126L297.459 204.878V206.393L297.391 208.321L297.872 209.836L297.666 226.089L298.079 234.766L298.767 238.829L295.533 239.38L295.189 237.521L294.844 235.524L294.019 234.697L286.242 238.278L284.453 239.311L281.219 239.243L278.122 236.557L278.053 233.733L278.466 228.086Z" fill="#026270"/>
<path d="M266.478 236.006L268.199 235.455L270.263 235.179L270.538 235.799L270.194 238.692L269.644 239.242L264.689 238.898L264.07 238.967H260.285L259.459 238.829L256.156 239.105L254.917 238.967V236.281L255.467 234.766L255.055 232.631L255.605 220.442L255.399 195.649L255.812 194.065L255.123 193.514L254.71 188.556H256.569L258.702 188.212L259.046 188.487L258.977 192.413L258.702 194.961L258.358 203.225L257.876 211.42V214.863L257.945 215.759L258.083 221.681V222.026L258.289 225.813L257.67 226.089H257.738L258.289 227.053L258.633 232.287L258.702 235.11L258.358 235.455L259.115 236.143L266.478 236.006Z" fill="#026270"/>
<path d="M54.4881 158.635C54.231 160.651 54.1239 162.727 54.1667 164.862C54.2267 168.216 53.6353 168.336 52.3924 165.223C51.0552 161.877 50.3267 157.859 50.2067 153.167C50.1809 151.777 49.7309 150.593 49.0752 149.397C41.978 136.414 44.0094 125.439 50.8495 112.958C53.3696 108.369 55.6453 103.544 57.6768 98.4832C58.011 97.6255 58.0196 96.7677 57.7025 95.9099L54.7196 87.8039C54.5567 87.3578 54.5481 86.9118 54.6939 86.4658L55.9796 82.6701C56.1853 82.0525 55.9667 81.7608 55.3239 81.7951L52.881 81.9238C52.2724 81.9495 51.9853 81.6622 52.0195 81.0617C52.0367 80.7272 51.9381 80.4527 51.7238 80.2383C51.4152 79.9209 51.0424 79.7922 50.6052 79.8523C39.7022 81.2805 25.5849 78.0252 19.8891 67.7319C19.6394 67.2812 19.2504 66.9281 18.7834 66.7283C8.93471 62.5337 2.95606 50.3618 1.00175 40.2615C0.981034 40.159 0.986688 40.0528 1.01818 39.9531C1.04967 39.8533 1.10598 39.7632 1.1818 39.6912C1.25763 39.6191 1.35049 39.5676 1.45169 39.5413C1.55288 39.515 1.65908 39.5149 1.76033 39.541L3.50893 40.0042C4.36608 40.2272 4.61037 39.9398 4.24179 39.1421C-1.74971 26.1725 -1.394 13.2586 5.30895 0.400515C5.37195 0.276749 5.46877 0.17343 5.58815 0.102582C5.70754 0.0317332 5.84457 -0.00373288 5.98331 0.000310973C6.12205 0.00435483 6.25678 0.0477428 6.37184 0.125425C6.4869 0.203107 6.57756 0.311891 6.63325 0.439116C12.0719 12.8941 21.9849 33.2234 36.3593 36.7103C40.7308 37.7654 45.6295 38.5588 51.0552 39.0906C51.261 39.1084 51.466 39.0515 51.6317 38.9307C51.7974 38.8099 51.9124 38.6335 51.9552 38.4344L52.5081 35.8225C52.6624 35.0762 53.1167 34.7503 53.871 34.8446L63.8611 36.0927C64.3068 36.1442 64.684 36.0112 64.9926 35.6938C65.9097 34.7674 66.7754 33.7638 67.5897 32.683C71.8969 27.0345 79.7142 23.0587 86.4257 21.3089C86.6204 21.2563 86.8027 21.1642 86.9618 21.0381C87.1209 20.9121 87.2534 20.7547 87.3514 20.5755C87.8486 19.6491 87.9728 18.5382 87.7243 17.243C87.6441 16.812 87.7348 16.3667 87.9773 16.0016C88.2197 15.6365 88.5948 15.3803 89.0229 15.2873C90.8743 14.8927 92.8501 14.4552 94.9501 13.9749C99.823 12.8555 104.554 14.4123 109.183 15.313C109.68 15.4159 109.929 15.7204 109.929 16.2265L109.942 20.138C109.942 20.7041 110.216 21.0515 110.765 21.1802C119.979 23.3332 127.188 28.1111 132.391 35.5137C132.682 35.9426 133.085 36.127 133.599 36.067L144.078 34.8704C144.558 34.8103 144.828 35.0205 144.888 35.5008L145.184 37.9198C145.295 38.8462 145.814 39.2536 146.739 39.1421C158.041 37.701 167.144 36.9934 174.91 27.5235C181.141 19.9236 186.374 10.9684 190.608 0.65785C190.671 0.510438 190.775 0.383858 190.906 0.292747C191.038 0.201636 191.193 0.149716 191.353 0.142986C191.513 0.136257 191.672 0.174994 191.811 0.25472C191.95 0.334447 192.063 0.451905 192.138 0.593515C198.927 13.6746 199.193 26.5671 192.936 39.2708C192.438 40.2658 192.713 40.5746 193.758 40.1972L196.111 39.348C196.173 39.3249 196.239 39.3191 196.304 39.3311C196.368 39.3432 196.428 39.3727 196.477 39.4164C196.526 39.4601 196.563 39.5164 196.582 39.5792C196.601 39.642 196.603 39.7088 196.587 39.7726C194.157 50.8122 188.898 61.7875 178.69 66.8183C178.175 67.0671 177.781 67.4402 177.507 67.9377C172.03 77.8451 157.372 80.9331 146.919 80.1225C146.414 80.0882 146.019 80.2769 145.736 80.6886C144.931 81.8466 143.769 82.2712 142.252 81.9624C141.541 81.808 141.305 82.0782 141.545 82.773L142.882 86.5944C143.036 87.0405 143.024 87.4822 142.844 87.9197L139.668 95.8456C139.496 96.2573 139.453 96.6819 139.539 97.1194C139.891 98.895 140.474 100.641 141.288 102.356C143.679 107.4 146.229 112.491 148.938 117.629C154.814 128.797 153.682 138.589 148.295 149.371C147.549 150.855 147.185 152.438 147.202 154.119C147.254 158.622 146.212 162.945 144.078 167.088C143.984 167.269 143.834 167.384 143.628 167.436C143.431 167.487 143.281 167.457 143.178 167.346C143.075 167.243 143.191 160.436 143.101 159.497C142.938 157.584 142.599 157.554 142.085 159.407C138.751 171.476 131.469 181.898 120.24 190.673C120.143 190.749 120.031 190.804 119.912 190.836C119.793 190.868 119.669 190.876 119.547 190.859C119.425 190.842 119.307 190.801 119.201 190.738C119.095 190.675 119.002 190.592 118.929 190.493C118.715 190.21 118.44 190.077 118.106 190.094C117.626 190.111 117.3 190.343 117.129 190.789C114.66 197.214 111.27 203.287 106.959 209.008C106.811 209.198 106.718 209.425 106.688 209.665C106.659 209.905 106.695 210.149 106.792 210.372C107.666 212.431 108.695 214.481 109.877 216.522C110.765 218.066 110.366 219.546 109.672 221.013C106.697 227.36 103.697 233.562 100.672 239.618C100.623 239.715 100.548 239.797 100.455 239.853C100.362 239.91 100.256 239.939 100.147 239.938C100.038 239.937 99.932 239.905 99.8406 239.846C99.7492 239.787 99.6763 239.704 99.6301 239.605C96.9215 234.158 94.2129 228.827 91.5043 223.612C90.4672 221.613 89.6357 219.546 89.01 217.41C88.9269 217.136 88.9405 216.845 89.0486 216.587L91.4015 210.719C91.5558 210.316 91.5 209.943 91.2343 209.6C86.2028 203.227 82.5599 196.776 80.3056 190.248C79.9628 189.236 79.4999 189.176 78.917 190.068C78.3599 190.926 77.687 191.05 76.8984 190.441C66.0211 181.898 58.7482 171.283 55.0796 158.596C54.8139 157.67 54.6167 157.683 54.4881 158.635ZM12.4962 34.0598C15.5305 34.969 18.7363 35.6681 22.1134 36.157C23.082 36.2943 23.1892 36.0541 22.4349 35.4365C15.7919 29.9982 10.6362 22.7585 6.96754 13.7175C6.52182 12.6367 6.2261 12.6753 6.08039 13.8333C4.65323 24.6671 7.08326 41.4324 17.2148 47.9686C17.3959 48.0831 17.6036 48.15 17.8191 48.1635C18.0346 48.177 18.2512 48.1365 18.4491 48.0458L20.4549 47.1194C20.5455 47.0771 20.6248 47.0137 20.686 46.9347C20.7472 46.8557 20.7884 46.7634 20.8061 46.6659C20.8238 46.5684 20.8175 46.4686 20.7877 46.375C20.7578 46.2814 20.7054 46.1969 20.6349 46.1287C17.1119 42.689 14.2319 38.8719 11.9947 34.6774C11.6605 34.0683 11.8276 33.8625 12.4962 34.0598ZM185.543 33.7252C185.826 33.6309 185.898 33.7166 185.761 33.9826C183.044 38.992 179.963 43.0493 176.517 46.1544C176.105 46.5233 176.148 46.8235 176.645 47.0551L178.664 47.9815C179.05 48.1616 179.427 48.1445 179.795 47.93C190.48 41.7154 192.781 25.0788 191.007 13.7304C190.836 12.641 190.57 12.6153 190.21 13.6532C187.287 22.0766 182.144 29.4278 174.781 35.7067C174.181 36.2128 174.271 36.4015 175.051 36.2728C178.703 35.6466 182.2 34.7974 185.543 33.7252ZM100.363 55.3412L103.667 55.1354C103.89 55.1222 104.1 55.0229 104.253 54.8578C104.406 54.6928 104.491 54.4744 104.49 54.2476L104.516 20.4725C104.516 19.8549 104.212 19.5333 103.603 19.5075L98.3058 19.2759L93.8572 19.5461C93.6594 19.556 93.4729 19.6417 93.3365 19.7855C93.2001 19.9292 93.1241 20.1199 93.1243 20.3181L93.0986 54.2733C93.0985 54.4907 93.183 54.6997 93.3343 54.8558C93.4855 55.0119 93.6915 55.103 93.9087 55.1096L100.363 55.3412ZM87.2357 55.2769C87.4301 55.2769 87.6165 55.1996 87.7539 55.0621C87.8914 54.9246 87.9686 54.738 87.9686 54.5435L87.9814 27.5106C87.9824 27.44 87.9667 27.3701 87.9356 27.3067C87.9046 27.2432 87.8591 27.188 87.8027 27.1454C87.7464 27.1028 87.6809 27.0741 87.6114 27.0615C87.5419 27.049 87.4705 27.053 87.4028 27.0731C74.4812 30.9074 65.2883 40.7376 64.7868 54.492C64.7697 55.0239 65.0268 55.2898 65.5583 55.2898L87.2357 55.2769ZM109.813 28.8102L109.775 54.5049C109.775 54.9424 109.993 55.1611 110.43 55.1611L130.783 55.174C131.203 55.3713 131.666 55.4056 132.172 55.2769C132.592 55.174 132.798 54.9038 132.789 54.4663C132.403 41.0464 123.03 31.2934 110.713 27.1246C110.276 26.9788 110.002 27.1332 109.89 27.5878C109.77 28.0767 109.745 28.4842 109.813 28.8102ZM29.5707 41.2908C29.5122 41.2417 29.4407 41.2104 29.365 41.2008L21.0849 39.8112C20.9996 39.7984 20.9125 39.8135 20.8367 39.8545C20.7608 39.8954 20.7002 39.9598 20.664 40.038C20.6278 40.1163 20.6179 40.2042 20.6358 40.2886C20.6538 40.3729 20.6985 40.4492 20.7634 40.506L27.0764 45.9486C27.1277 45.9935 27.1897 46.0245 27.2564 46.0386L35.485 47.647C35.5697 47.6628 35.6571 47.6508 35.7344 47.6128C35.8116 47.5748 35.8745 47.5127 35.9136 47.436C35.9526 47.3592 35.9658 47.2719 35.9512 47.187C35.9365 47.1021 35.8948 47.0242 35.8322 46.965L29.5707 41.2908ZM176.427 40.506C176.495 40.4407 176.541 40.3549 176.557 40.2615C176.572 40.1681 176.557 40.0721 176.514 39.9879C176.47 39.9038 176.401 39.836 176.316 39.7949C176.23 39.7537 176.134 39.7414 176.041 39.7597L167.954 41.3423C167.877 41.3576 167.806 41.3932 167.748 41.4452L161.487 46.8878C161.411 46.9486 161.358 47.0326 161.336 47.1267C161.313 47.2208 161.323 47.3198 161.362 47.408C161.402 47.4963 161.47 47.5689 161.555 47.6144C161.64 47.66 161.738 47.676 161.834 47.6598L170.127 46.296C170.214 46.2816 170.294 46.2413 170.358 46.1802L176.427 40.506ZM135.978 42.14C137.375 46.5147 138.005 50.6621 137.868 54.5821C137.851 55.1482 138.125 55.4399 138.691 55.457L139.051 55.4699C139.685 55.4871 140.006 55.174 140.015 54.5306L140.182 41.6768C140.184 41.5631 140.163 41.4502 140.12 41.3453C140.076 41.2403 140.012 41.1456 139.931 41.067C139.85 40.9884 139.754 40.9277 139.649 40.8887C139.544 40.8498 139.432 40.8333 139.321 40.8405L136.762 40.982C136.008 41.0249 135.746 41.4109 135.978 42.14ZM59.7982 54.4148C59.7211 49.7571 60.8782 46.2702 62.0097 41.7798C62.1211 41.3337 61.9454 41.1064 61.4825 41.0978L57.9982 40.9949C57.5353 40.9863 57.3039 41.2093 57.3039 41.664L57.381 54.5821C57.381 55.234 57.7025 55.5257 58.3453 55.457L58.9368 55.3927C59.5196 55.3241 59.8068 54.9981 59.7982 54.4148ZM37.6065 42.7448C37.1865 42.6676 37.1479 42.7576 37.4908 43.015C41.6437 46.1416 46.1695 49.1395 51.3638 48.8822C51.741 48.865 51.9381 48.6677 51.9552 48.2903L52.0967 45.2666C52.1138 44.7863 51.8824 44.5289 51.4024 44.4946C46.868 44.2287 42.2694 43.6454 37.6065 42.7448ZM158.979 43.4138C159.665 42.8563 159.575 42.6719 158.709 42.8606C154.544 43.7698 150.468 44.3531 146.482 44.6104C146.254 44.6249 146.039 44.72 145.876 44.8783C145.713 45.0366 145.613 45.2475 145.595 45.4725L145.376 48.1359C145.316 48.8221 145.629 49.1352 146.315 49.0752C150.584 48.7063 154.805 46.8192 158.979 43.4138ZM181.814 52.8194C177.381 55.7196 172.608 58.0944 170.076 59.5744C167.544 61.0544 167.195 61.1184 166.707 61.4015C164.487 62.6881 164.654 63.4301 167.208 63.6274C176.787 64.3737 183.537 58.0561 187.6 50.156C188.166 49.0666 187.934 48.8564 186.906 49.5255L181.814 52.8194ZM24.1706 63.473C26.7355 63.9323 29.6567 63.9314 29.7419 63.9341L32.4893 63.5502C32.6134 63.5497 32.7339 63.5083 32.8322 63.4325C32.9305 63.3568 33.0012 63.2507 33.0334 63.1308C33.0655 63.0108 33.0574 62.8836 33.0102 62.7687C32.963 62.6539 32.8793 62.5577 32.7722 62.4951L10.2076 49.5126C10.0943 49.4526 9.96402 49.4329 9.83806 49.4567C9.71211 49.4804 9.59796 49.5463 9.5143 49.6435C9.43064 49.7406 9.38243 49.8634 9.37758 49.9915C9.37272 50.1197 9.4115 50.2457 9.48757 50.349C9.48757 50.349 12.9924 55.8628 14.4865 57.3356C15.9805 58.8084 17.5376 60.2996 19.0631 61.487C20.5886 62.6744 21.6057 63.0137 24.1706 63.473ZM162.85 54.6078C162.93 54.8451 162.916 55.1045 162.811 55.3337C162.706 55.5628 162.518 55.7448 162.284 55.843C161.101 56.3406 160.102 57.0096 159.288 57.8503C158.174 59.0168 158.392 59.3814 159.944 58.9439C164.478 57.6658 168.845 55.0968 173.045 51.2368C173.877 50.4734 173.731 50.1646 172.608 50.3104C164.32 51.4255 155.538 51.9359 146.264 51.8415C146.171 51.8398 146.078 51.8564 145.992 51.8904C145.906 51.9244 145.827 51.9751 145.76 52.0396C145.693 52.1042 145.639 52.1812 145.602 52.2665C145.565 52.3517 145.545 52.4434 145.544 52.5363L145.428 56.8081C145.419 57.2713 145.638 57.4642 146.084 57.387C151.192 56.5979 156.447 55.3798 161.847 53.7329C162.019 53.6796 162.205 53.6955 162.366 53.7771C162.527 53.8588 162.649 53.9998 162.708 54.1704L162.85 54.6078ZM35.4336 56.7051C33.231 55.174 31.9536 52.9438 35.485 54.1704C39.4794 55.5686 45.8009 56.6579 51.081 57.3356C51.7067 57.4128 52.0153 57.1383 52.0067 56.5121L51.9038 52.6006C51.8952 52.0946 51.6338 51.8415 51.1195 51.8415C41.7423 51.8329 32.9522 51.3483 24.7492 50.3876C23.3778 50.2246 23.2063 50.602 24.2349 51.5198C28.0407 54.8909 32.3393 57.46 37.1308 59.227C37.3325 59.301 37.552 59.3097 37.7576 59.2519C37.9633 59.1941 38.1444 59.0728 38.2751 58.9053L38.5065 58.6094C38.7294 58.3349 38.6737 58.1333 38.3394 58.0047C36.5736 57.3442 35.605 56.911 35.4336 56.7051ZM145.582 60.6681L145.492 63.1513C145.484 63.4515 145.625 63.5716 145.916 63.5116C148.848 62.8511 151.591 61.706 154.145 60.0762C154.214 60.0333 154.261 59.9775 154.287 59.9089C154.321 59.7888 154.329 59.6773 154.312 59.5744C154.278 59.2913 154.119 59.1627 153.837 59.1884L146.315 59.8832C145.844 59.9261 145.599 60.1877 145.582 60.6681ZM50.901 63.7175C51.0077 63.7584 51.1226 63.7733 51.2362 63.761C51.3499 63.7487 51.4589 63.7095 51.5544 63.6466C51.6499 63.5838 51.7291 63.499 51.7854 63.3995C51.8416 63.2999 51.8734 63.1884 51.8781 63.0741L52.0067 60.4365C52.0101 60.3418 51.9949 60.2474 51.9618 60.1587C51.9288 60.07 51.8786 59.9886 51.8141 59.9193C51.7496 59.85 51.6721 59.7941 51.586 59.7548C51.5 59.7154 51.407 59.6935 51.3124 59.6902L43.9194 59.4329C43.7507 59.4291 43.586 59.4847 43.4541 59.5901C43.3222 59.6955 43.2315 59.8439 43.1978 60.0094C43.1642 60.1749 43.1896 60.347 43.2698 60.4956C43.35 60.6442 43.4798 60.7599 43.6366 60.8225L50.901 63.7175ZM99.5016 76.1981H139.604C139.801 76.1981 139.991 76.1195 140.131 75.9796C140.271 75.8396 140.349 75.6498 140.349 75.4519L140.336 61.35C140.336 61.1589 140.262 60.9756 140.129 60.8405C139.997 60.7054 139.817 60.6295 139.629 60.6295L98.3573 60.6423H57.8439C57.6666 60.6423 57.4965 60.7128 57.3711 60.8383C57.2458 60.9638 57.1753 61.1339 57.1753 61.3114V75.4647C57.1753 75.6627 57.2525 75.8525 57.39 75.9924C57.5274 76.1324 57.7138 76.211 57.9082 76.211L99.5016 76.1981ZM48.2715 68.0319C48.3081 67.9374 48.3258 67.8366 48.3235 67.7352C48.3212 67.6339 48.299 67.534 48.2581 67.4412C48.2173 67.3484 48.1585 67.2646 48.0853 67.1946C48.012 67.1245 47.9257 67.0696 47.8313 67.033L39.8478 63.9341C39.7533 63.8975 39.6526 63.8798 39.5513 63.8821C39.45 63.8844 39.3502 63.9066 39.2575 63.9475C39.1648 63.9884 39.0811 64.0472 39.0111 64.1205C38.9411 64.1938 38.8862 64.2802 38.8495 64.3747L38.8216 64.4467C38.785 64.5413 38.7673 64.6421 38.7696 64.7434C38.7719 64.8448 38.7941 64.9447 38.835 65.0375C38.8759 65.1302 38.9346 65.214 39.0079 65.2841C39.0811 65.3541 39.1674 65.409 39.2619 65.4457L47.2454 68.5445C47.3398 68.5812 47.4406 68.5989 47.5418 68.5966C47.6431 68.5943 47.743 68.5721 47.8357 68.5311C47.9284 68.4902 48.0121 68.4314 48.0821 68.3582C48.1521 68.2849 48.207 68.1985 48.2436 68.104L48.2715 68.0319ZM158.176 64.1404C158.132 64.0308 157.96 63.9742 157.67 63.9739C157.381 63.9736 156.979 64.0295 156.489 64.1386C155.998 64.2476 155.428 64.4076 154.811 64.6094C154.195 64.8112 153.543 65.0509 152.894 65.3147C152.244 65.5785 151.61 65.8614 151.027 66.147C150.445 66.4327 149.925 66.7156 149.497 66.9797C149.069 67.2437 148.743 67.4837 148.535 67.6859C148.328 67.8881 148.244 68.0486 148.288 68.1581C148.333 68.2678 148.505 68.3243 148.794 68.3247C149.084 68.325 149.485 68.269 149.976 68.16C150.466 68.0509 151.036 67.8909 151.653 67.6891C152.27 67.4873 152.922 67.2476 153.571 66.9838C154.22 66.72 154.854 66.4372 155.437 66.1515C156.02 65.8658 156.54 65.5829 156.967 65.3188C157.395 65.0548 157.722 64.8148 157.929 64.6126C158.137 64.4104 158.22 64.25 158.176 64.1404ZM39.7472 70.0732C39.7681 69.8987 39.6242 69.7063 39.324 69.507C39.0237 69.3076 38.5728 69.1052 37.9971 68.9114C37.4214 68.7176 36.7321 68.536 35.9687 68.3772C35.2052 68.2184 34.3825 68.0854 33.5476 67.9857C31.8614 67.7845 30.2276 67.7315 29.0056 67.8384C27.7835 67.9453 27.0734 68.2033 27.0314 68.5557C27.0105 68.7302 27.1544 68.9226 27.4547 69.122C27.7549 69.3213 28.2058 69.5237 28.7815 69.7175C29.3572 69.9114 30.0465 70.0929 30.8099 70.2517C31.5734 70.4105 32.3961 70.5436 33.231 70.6432C34.9172 70.8444 36.551 70.8974 37.773 70.7905C38.9951 70.6836 39.7052 70.4256 39.7472 70.0732ZM170.076 68.6426C170.036 68.2762 169.322 67.9983 168.091 67.8701C166.859 67.7418 165.211 67.7737 163.51 67.9587C162.667 68.0503 161.836 68.1768 161.065 68.3308C160.294 68.4849 159.598 68.6636 159.016 68.8566C158.434 69.0497 157.978 69.2534 157.674 69.456C157.37 69.6587 157.223 69.8564 157.243 70.0378C157.283 70.4042 157.997 70.6821 159.228 70.8103C160.46 70.9386 162.108 70.9067 163.809 70.7217C164.652 70.6301 165.483 70.5036 166.254 70.3496C167.025 70.1955 167.721 70.0168 168.303 69.8238C168.885 69.6307 169.341 69.427 169.645 69.2243C169.949 69.0217 170.096 68.824 170.076 68.6426ZM48.765 73.7159C48.7622 73.6112 48.6336 73.5108 48.3862 73.4204C48.1389 73.3301 47.7778 73.2516 47.3235 73.1894C46.8693 73.1272 46.3307 73.0825 45.7387 73.0579C45.1466 73.0333 44.5126 73.0293 43.8729 73.0461C43.2332 73.0628 42.6003 73.1001 42.0103 73.1556C41.4204 73.2112 40.8849 73.284 40.4345 73.3699C39.9841 73.4558 39.6276 73.5531 39.3853 73.6563C39.143 73.7594 39.0197 73.8664 39.0225 73.9712C39.0252 74.0759 39.1539 74.1763 39.4012 74.2666C39.6485 74.357 40.0096 74.4355 40.4639 74.4977C40.9182 74.5599 41.4567 74.6046 42.0488 74.6292C42.6409 74.6538 43.2748 74.6578 43.9146 74.641C44.5543 74.6242 45.1872 74.587 45.7771 74.5315C46.3671 74.4759 46.9026 74.4031 47.353 74.3172C47.8034 74.2313 48.1599 74.134 48.4021 74.0308C48.6444 73.9276 48.7677 73.8206 48.765 73.7159ZM158.143 73.9478C158.147 73.7397 157.668 73.5291 156.811 73.3624C155.954 73.1957 154.788 73.0866 153.571 73.0589C152.354 73.0313 151.185 73.0874 150.322 73.215C149.458 73.3426 148.97 73.5312 148.965 73.7393C148.96 73.9474 149.439 74.158 150.296 74.3247C151.154 74.4913 152.319 74.6005 153.536 74.6282C154.753 74.6558 155.922 74.5996 156.786 74.472C157.65 74.3444 158.138 74.1559 158.143 73.9478ZM61.7011 91.4837L61.7268 82.2455C61.7268 82.1806 61.7011 82.1185 61.6553 82.0726C61.6094 82.0268 61.5473 82.001 61.4825 82.001H61.3797C60.8922 82.0016 60.4233 82.494 60.0761 83.3698C59.7289 84.2457 59.5319 85.4333 59.5282 86.6716V87.0576C59.5264 87.6712 59.5722 88.2787 59.663 88.8455C59.7538 89.4123 59.8878 89.9273 60.0573 90.361C60.2268 90.7948 60.4286 91.1388 60.6511 91.3734C60.8736 91.6079 61.1124 91.7285 61.3539 91.7282H61.4568C61.4889 91.7282 61.5207 91.7219 61.5503 91.7096C61.5799 91.6973 61.6069 91.6793 61.6295 91.6566C61.6522 91.6339 61.6702 91.607 61.6825 91.5773C61.6948 91.5476 61.7011 91.5159 61.7011 91.4837ZM72.7198 86.5687C72.5925 86.4985 72.4876 86.3938 72.4171 86.2666C72.3467 86.1394 72.3136 85.9948 72.3216 85.8496C72.3297 85.7044 72.3786 85.5644 72.4627 85.4458C72.5468 85.3271 72.6627 85.2347 72.7969 85.1791C74.3227 84.5615 75.7284 83.7723 77.0142 82.8116C77.8456 82.1769 77.7384 81.8724 76.6927 81.8981L67.1912 82.1812C66.9876 82.1878 66.7947 82.2735 66.6531 82.4199C66.5116 82.5664 66.4325 82.7622 66.4326 82.966L66.394 95.0607C66.39 95.3897 66.4664 95.7143 66.6167 96.006C66.7669 96.2977 66.9863 96.5475 67.2554 96.7334L73.6841 101.25C74.087 101.533 74.4555 101.498 74.7898 101.147C78.5613 97.2609 83.0185 95.6912 88.1614 96.4374C89.0357 96.5661 89.6357 96.223 89.9614 95.4081L90.8743 93.1436C91.2172 92.3115 90.9386 91.9212 90.0386 91.9727C86.7343 92.14 83.0314 92.6932 80.0742 90.8404C77.6056 89.2878 75.1541 87.8639 72.7198 86.5687ZM98.4858 103.385C100.474 102.45 102.287 101.202 103.924 99.6412C104.284 99.3067 104.396 98.9035 104.259 98.4318L101.289 87.9068C101.049 87.0662 101.306 86.8603 102.06 87.2892C102.943 87.7867 103.86 87.8596 104.812 87.508C108.497 86.1269 112.192 84.6601 115.895 83.1075C117.626 82.3784 117.553 82.0182 115.676 82.0267L98.8073 82.1168L81.3856 81.9495C79.8256 81.941 79.7613 82.2455 81.1928 82.8631C84.3985 84.2441 87.8571 85.6852 91.5686 87.1863C93.0429 87.7782 94.4572 87.7353 95.8115 87.0576C95.8633 87.0332 95.9213 87.0237 95.9784 87.0303C96.0354 87.0369 96.0891 87.0593 96.1328 87.0948C96.1764 87.1304 96.2083 87.1774 96.2243 87.2302C96.2403 87.283 96.2398 87.3393 96.223 87.3922L92.9701 98.6376C92.8501 99.0751 92.9743 99.4268 93.3429 99.6927L98.4858 103.385ZM124.65 86.5687C122.113 87.8039 119.593 89.245 117.09 90.8919C114.185 92.7962 110.327 91.9341 107.023 92.1271C106.612 92.1528 106.462 92.363 106.573 92.7576L107.473 96.0514C107.619 96.5747 107.957 96.7763 108.489 96.6562C113.752 95.4381 118.492 96.9521 122.709 101.198C123.018 101.515 123.348 101.546 123.699 101.288L130.231 96.5404C130.788 96.1372 131.071 95.5925 131.079 94.9063L131.272 82.8116C131.272 82.6398 131.205 82.4748 131.084 82.3521C130.964 82.2294 130.801 82.1588 130.629 82.1554L120.292 81.9882C119.46 81.971 119.392 82.1897 120.086 82.6443C121.466 83.5536 122.988 84.4071 124.65 85.2048C124.778 85.2673 124.886 85.3643 124.961 85.4848C125.036 85.6054 125.076 85.7446 125.076 85.8867C125.076 86.0289 125.036 86.1681 124.961 86.2887C124.886 86.4092 124.778 86.5062 124.65 86.5687ZM136.595 82.4128C136.561 82.3212 136.496 82.2447 136.411 82.1968C136.326 82.1489 136.227 82.1328 136.131 82.1514C136.035 82.1699 135.949 82.2219 135.888 82.298C135.827 82.3742 135.795 82.4696 135.798 82.5671V91.2393C135.795 91.3369 135.827 91.4322 135.888 91.5084C135.949 91.5845 136.035 91.6365 136.131 91.6551C136.227 91.6736 136.326 91.6575 136.411 91.6096C136.496 91.5618 136.561 91.4852 136.595 91.3937L138.382 87.0576C138.422 86.9586 138.422 86.8479 138.382 86.7488L136.595 82.4128ZM94.2815 106.872C92.1729 105.474 90.3 103.793 88.6629 101.829C88.4583 101.58 88.1996 101.38 87.9058 101.244C87.6121 101.108 87.2908 101.04 86.9657 101.044C81.0856 101.172 76.8899 104.239 74.3784 110.243C72.3898 114.995 69.844 118.877 66.7411 121.888C66.1326 122.48 66.2397 122.668 67.0626 122.454C77.1256 119.82 86.2243 115.017 94.3586 108.043C94.445 107.969 94.5129 107.876 94.5569 107.771C94.601 107.666 94.62 107.552 94.6126 107.438C94.6051 107.325 94.5713 107.215 94.5138 107.116C94.4563 107.018 94.3768 106.934 94.2815 106.872ZM109.183 101.764L102.819 107.207C102.476 107.498 102.48 107.782 102.832 108.056C110.975 114.695 119.846 119.422 129.446 122.235C130.595 122.578 130.801 122.274 130.063 121.322L124.856 114.657C123.159 110.831 121.792 108.142 120.755 106.589C117.729 102.026 113.872 100.418 109.183 101.764ZM58.5639 117.217C58.6068 118.907 58.4268 120.455 58.0239 121.862C57.5525 123.5 57.9725 123.775 59.2839 122.685C63.8354 118.894 67.2854 113.936 69.634 107.812C69.7283 107.563 69.8483 107.318 69.994 107.078C70.8855 105.629 70.2941 104.573 68.2197 103.913C68.069 103.863 67.9067 103.861 67.7548 103.907C67.603 103.953 67.469 104.045 67.3712 104.17L61.3925 111.903C60.6897 112.804 60.3468 112.684 60.3639 111.543L60.4539 104.749C60.4796 102.957 60.0896 102.858 59.2839 104.453C57.201 108.579 55.1524 112.705 53.1381 116.831C48.8781 125.563 48.4795 135.059 51.9424 145.318C52.1395 145.91 52.3967 145.936 52.7138 145.395C55.7824 140.163 59.3954 135.055 63.5525 130.071C64.564 128.853 64.3068 128.458 62.7811 128.887L58.3325 130.135C57.8377 130.278 57.3949 130.564 57.0596 130.959L55.5296 132.786C54.921 133.523 54.6167 133.412 54.6167 132.451C54.6339 125.589 55.5767 120.421 57.4453 116.947C58.1568 115.635 58.5296 115.725 58.5639 117.217ZM141.854 133.12C141.245 132.537 140.821 131.829 140.581 130.997C140.426 130.474 140.079 130.152 139.539 130.032L134.165 128.861C133.316 128.681 133.166 128.93 133.715 129.608C137.675 134.484 141.956 139.657 144.759 145.395C145.068 146.021 145.329 146.004 145.544 145.344C151.059 129.029 146.238 118.221 137.675 103.862C137.101 102.901 136.835 102.978 136.878 104.093L137.109 110.771C137.169 112.315 136.728 112.474 135.785 111.247L130.333 104.17C129.973 103.707 129.558 103.651 129.086 104.003L127.53 105.187C127.093 105.513 126.969 105.933 127.158 106.448C129.686 113.319 133.411 118.791 138.331 122.866C139.248 123.629 139.638 123.419 139.501 122.235C139.269 120.237 139.059 118.341 138.871 116.548C138.854 116.377 138.926 116.248 139.089 116.162C139.124 116.136 139.162 116.123 139.205 116.123C139.539 116.081 139.779 116.214 139.925 116.522C142.145 121.532 143.071 126.953 142.702 132.786C142.651 133.498 142.368 133.609 141.854 133.12ZM94.6672 115.429C94.5997 115.478 94.5495 115.548 94.5237 115.627C94.4979 115.707 94.4978 115.793 94.5234 115.872C94.549 115.952 94.599 116.022 94.6664 116.071C94.7337 116.121 94.815 116.148 94.8987 116.149L101.996 116.214C102.081 116.215 102.164 116.19 102.233 116.141C102.303 116.093 102.355 116.023 102.382 115.943C102.409 115.863 102.41 115.776 102.385 115.695C102.359 115.614 102.309 115.543 102.24 115.493L98.7173 112.855C98.6485 112.804 98.5651 112.777 98.4794 112.777C98.3937 112.777 98.3103 112.804 98.2416 112.855L94.6672 115.429ZM71.7941 132.914C71.1126 136.273 69.8012 139.554 69.2869 142.976C67.6926 153.716 68.6269 164.296 72.0898 174.718C73.5555 179.093 74.0398 178.986 73.5427 174.397C72.0255 160.321 74.1684 146.78 79.9713 133.777C82.0928 129.016 84.9857 124.963 88.11 120.897C88.29 120.665 88.4186 120.412 88.4957 120.138C88.7872 119.134 88.5086 118.937 87.66 119.546C81.8314 123.672 74.8455 126.614 66.7026 128.373C66.3877 128.436 66.0919 128.574 65.8393 128.775C65.5868 128.976 65.3848 129.235 65.2497 129.531C59.0268 142.95 56.9439 155.225 64.414 169.404C64.8768 170.279 65.044 170.224 64.9154 169.237C63.2183 156.152 64.0926 144.546 69.6855 132.863C70.0026 132.22 70.5126 131.958 71.2155 132.078C71.7041 132.155 71.8969 132.434 71.7941 132.914ZM126.103 132.258L126.476 132.117C126.819 131.997 127.072 132.1 127.235 132.426C133.218 144.186 135.031 156.195 132.673 168.452C132.416 169.79 132.631 169.872 133.316 168.697C140.606 156.1 138.716 142.217 132.133 129.183C132.033 128.986 131.89 128.812 131.715 128.674C131.539 128.537 131.336 128.438 131.118 128.385C122.958 126.438 115.779 123.415 109.582 119.314C109.282 119.117 108.995 119.13 108.72 119.353C108.62 119.434 108.556 119.551 108.542 119.678C108.528 119.806 108.564 119.934 108.643 120.035C119.7 134.317 127.865 157.4 123.866 176.249C123.532 177.836 123.793 177.944 124.65 176.571C125.208 175.688 125.658 174.748 126 173.753C130.698 160.14 130.603 146.575 125.718 133.056C125.664 132.899 125.675 132.727 125.747 132.578C125.819 132.429 125.947 132.314 126.103 132.258ZM111.125 186.581C110.807 187.868 110.417 189.095 109.955 190.261C109.905 190.374 109.898 190.502 109.936 190.619C109.974 190.737 110.054 190.836 110.161 190.898C110.268 190.96 110.393 190.981 110.514 190.956C110.635 190.931 110.743 190.862 110.816 190.763C115.367 185.102 118.14 178.93 119.135 172.248C121.668 155.212 118.479 136.35 108.193 122.595C107.956 122.278 107.645 122.025 107.289 121.856C106.932 121.688 106.541 121.61 106.149 121.63L101.623 121.836C100.749 121.879 100.522 122.287 100.942 123.059C105.107 130.633 107.632 135.441 108.515 137.482C114.853 152.034 114.982 170.807 111.125 186.581ZM84.2914 176.198C82.5556 160.719 83.7899 145.202 91.62 131.628C93.2829 128.754 94.9286 125.821 96.5572 122.827C96.9515 122.089 96.733 121.725 95.9015 121.733L91.71 121.746C90.5957 121.755 89.73 122.218 89.1129 123.136C79.1442 137.89 75.7327 154.543 78.8784 173.097C79.967 179.47 82.4956 185.157 86.4643 190.158C87.3814 191.325 87.6171 191.201 87.1714 189.785C85.7657 185.393 84.8057 180.864 84.2914 176.198ZM95.6058 197.531L102.343 197.492C102.797 197.492 103.106 197.278 103.269 196.849C111.292 175.645 115.83 148.226 100.594 128.99C100.149 128.398 99.673 127.935 99.1673 127.601C98.7644 127.343 98.4001 127.39 98.0744 127.742C84.4199 142.294 85.2042 167.05 90.54 184.832C91.6629 188.58 92.8629 192.389 94.1401 196.257C94.4229 197.106 94.9115 197.531 95.6058 197.531ZM103.155 203.632C103.157 203.543 103.124 203.457 103.063 203.393C103.002 203.328 102.918 203.291 102.829 203.288L94.552 203.071C94.4634 203.069 94.3775 203.102 94.3132 203.163C94.2489 203.224 94.2114 203.308 94.2091 203.397L94.1513 205.609C94.1489 205.698 94.1819 205.784 94.243 205.848C94.304 205.913 94.3881 205.95 94.4767 205.953L102.754 206.17C102.843 206.172 102.928 206.139 102.993 206.078C103.057 206.017 103.095 205.933 103.097 205.844L103.155 203.632ZM96.3258 223.161L99.8744 230.405C100.14 230.954 100.393 230.95 100.633 230.392L105.686 218.542C105.883 218.088 105.87 217.642 105.647 217.204L103.552 212.907C103.303 212.392 102.892 212.139 102.317 212.148L97.7658 212.225C96.4887 211.796 95.533 211.976 94.8987 212.765C92.0443 216.303 94.5129 219.932 96.3258 223.161Z" fill="#026270"/>
<path d="M99.1936 30.6889C103.257 31.1263 102.897 37.6884 98.2036 37.1866C94.1921 36.08 95.015 30.3801 99.1936 30.6889Z" fill="#026270"/>
<path d="M64.1459 72.7368C66.0277 72.7368 67.5531 71.2102 67.5531 69.3271C67.5531 67.444 66.0277 65.9174 64.1459 65.9174C62.2642 65.9174 60.7387 67.444 60.7387 69.3271C60.7387 71.2102 62.2642 72.7368 64.1459 72.7368Z" fill="#026270"/>
<path d="M81.4118 72.6853C83.2793 72.6853 84.7932 71.1703 84.7932 69.3014C84.7932 67.4325 83.2793 65.9174 81.4118 65.9174C79.5442 65.9174 78.0303 67.4325 78.0303 69.3014C78.0303 71.1703 79.5442 72.6853 81.4118 72.6853Z" fill="#026270"/>
<path d="M98.3326 66.0209C102.923 66.0338 103.463 71.5407 99.3741 72.7631C94.7326 73.2005 93.7683 67.2304 98.3326 66.0209Z" fill="#026270"/>
<path d="M115.922 72.7373C117.775 72.7373 119.278 71.2338 119.278 69.3791C119.278 67.5244 117.775 66.0209 115.922 66.0209C114.069 66.0209 112.566 67.5244 112.566 69.3791C112.566 71.2338 114.069 72.7373 115.922 72.7373Z" fill="#026270"/>
<path d="M133.279 72.7756C135.154 72.7756 136.674 71.2548 136.674 69.3788C136.674 67.5028 135.154 65.982 133.279 65.982C131.405 65.982 129.885 67.5028 129.885 69.3788C129.885 71.2548 131.405 72.7756 133.279 72.7756Z" fill="#026270"/>
<path d="M100.363 55.341C100.423 54.6891 100.174 54.2988 99.6173 54.1701C98.9487 54.0072 98.6059 53.5826 98.5887 52.8963L98.203 37.1861C102.896 37.6879 103.256 31.1259 99.193 30.6884C98.6359 28.8099 98.3487 27.3345 98.3316 26.2623C98.3059 23.9206 98.2973 21.5917 98.3059 19.2757L103.603 19.5073C104.212 19.533 104.516 19.8547 104.516 20.4723L104.49 54.2473C104.491 54.4741 104.406 54.6925 104.253 54.8576C104.1 55.0227 103.89 55.122 103.667 55.1351L100.363 55.341Z" fill="#026270" fill-opacity="0.2"/>
<path d="M130.783 55.1739L110.43 55.1611C109.993 55.1611 109.774 54.9423 109.774 54.5049L109.813 28.8101C122.541 33.322 129.532 42.1099 130.783 55.1739Z" fill="#026270" fill-opacity="0.2"/>
<path d="M99.5013 76.1978L99.3727 72.7624C103.461 71.5401 102.921 66.0331 98.3313 66.0202C98.9827 64.7164 98.9913 62.9237 98.357 60.642L139.629 60.6291C139.816 60.6291 139.996 60.705 140.129 60.8402C140.262 60.9753 140.336 61.1586 140.336 61.3497L140.349 75.4515C140.349 75.6494 140.27 75.8393 140.13 75.9792C139.991 76.1192 139.801 76.1978 139.603 76.1978H99.5013ZM119.276 69.3784C119.276 68.4878 118.922 67.6336 118.293 67.0038C117.664 66.3741 116.81 66.0202 115.92 66.0202C115.479 66.0202 115.043 66.1071 114.636 66.2759C114.229 66.4446 113.859 66.692 113.547 67.0038C113.236 67.3157 112.988 67.6859 112.82 68.0933C112.651 68.5008 112.564 68.9374 112.564 69.3784C112.564 69.8195 112.651 70.2561 112.82 70.6636C112.988 71.071 113.236 71.4412 113.547 71.7531C113.859 72.0649 114.229 72.3123 114.636 72.481C115.043 72.6498 115.479 72.7367 115.92 72.7367C116.81 72.7367 117.664 72.3828 118.293 71.7531C118.922 71.1233 119.276 70.2691 119.276 69.3784ZM136.672 69.3784C136.672 68.4776 136.314 67.6136 135.678 66.9766C135.041 66.3395 134.178 65.9816 133.277 65.9816C132.377 65.9816 131.514 66.3395 130.877 66.9766C130.241 67.6136 129.883 68.4776 129.883 69.3784C129.883 70.2793 130.241 71.1433 130.877 71.7803C131.514 72.4174 132.377 72.7752 133.277 72.7752C134.178 72.7752 135.041 72.4174 135.678 71.7803C136.314 71.1433 136.672 70.2793 136.672 69.3784Z" fill="#026270" fill-opacity="0.2"/>
<path d="M98.4857 103.386C98.8715 103.008 99.0386 102.584 98.9872 102.112C98.9641 101.898 98.8839 101.694 98.7549 101.522C98.626 101.35 98.453 101.216 98.2543 101.134C98.0057 101.031 97.8686 100.847 97.8429 100.581C97.7829 100.049 97.9372 99.5943 98.3057 99.2168C99.0172 98.4963 99.3258 97.7586 99.2315 97.0038C98.6743 92.1745 98.5329 87.2122 98.8072 82.117L115.676 82.0269C117.553 82.0184 117.626 82.3786 115.895 83.1077C112.192 84.6603 108.497 86.1271 104.812 87.5082C103.86 87.8598 102.943 87.7869 102.06 87.2894C101.306 86.8605 101.049 87.0664 101.289 87.907L104.259 98.432C104.396 98.9037 104.284 99.3069 103.924 99.6414C102.287 101.203 100.474 102.451 98.4857 103.386Z" fill="#026270" fill-opacity="0.2"/>
<path d="M124.652 86.5685C124.78 86.5061 124.887 86.409 124.963 86.2885C125.038 86.1679 125.078 86.0287 125.078 85.8866C125.078 85.7445 125.038 85.6052 124.963 85.4846C124.887 85.3641 124.78 85.2671 124.652 85.2046C122.989 84.4069 121.468 83.5534 120.088 82.6442C119.394 82.1895 119.462 81.9708 120.294 81.988L130.631 82.1552C130.803 82.1586 130.966 82.2292 131.086 82.3519C131.207 82.4746 131.274 82.6396 131.274 82.8114L131.081 94.9061C131.072 95.5923 130.79 96.137 130.232 96.5402L123.701 101.288C123.349 101.545 123.019 101.515 122.711 101.198C118.494 96.9519 113.754 95.4379 108.491 96.656C107.959 96.7761 107.621 96.5745 107.475 96.0512L106.575 92.7574C106.463 92.3628 106.613 92.1526 107.025 92.1269C110.329 91.9339 114.186 92.796 117.092 90.8917C119.595 89.2448 122.115 87.8037 124.652 86.5685Z" fill="#026270" fill-opacity="0.2"/>
<path d="M136.595 82.4133L138.383 86.7494C138.423 86.8484 138.423 86.9591 138.383 87.0582L136.595 91.3942C136.562 91.4858 136.496 91.5623 136.411 91.6102C136.326 91.6581 136.227 91.6742 136.131 91.6556C136.036 91.6371 135.949 91.5851 135.888 91.5089C135.827 91.4328 135.795 91.3374 135.798 91.2398V82.5677C135.795 82.4701 135.827 82.3748 135.888 82.2986C135.949 82.2224 136.036 82.1705 136.131 82.1519C136.227 82.1334 136.326 82.1495 136.411 82.1973C136.496 82.2452 136.562 82.3218 136.595 82.4133Z" fill="#026270" fill-opacity="0.2"/>
<path d="M109.184 101.764C113.358 103.454 116.718 105.988 119.264 109.368C120.704 111.281 122.084 113.194 123.404 115.107C123.471 115.207 123.564 115.287 123.674 115.338C124.548 115.767 124.942 115.54 124.857 114.656L130.064 121.321C130.801 122.273 130.595 122.578 129.447 122.235C119.847 119.421 110.975 114.695 102.832 108.056C102.481 107.781 102.476 107.498 102.819 107.206L109.184 101.764Z" fill="#026270" fill-opacity="0.2"/>
<path d="M142.704 132.786C143.072 126.953 142.146 121.532 139.926 116.522C139.781 116.214 139.541 116.081 139.206 116.124C139.164 116.124 139.125 116.136 139.091 116.162C138.928 116.248 138.855 116.377 138.872 116.548C139.061 118.341 139.271 120.237 139.502 122.235C139.639 123.419 139.249 123.629 138.332 122.866C133.412 118.791 129.688 113.319 127.159 106.448C126.971 105.933 127.095 105.513 127.532 105.187L129.088 104.003C129.559 103.651 129.975 103.707 130.335 104.17L135.786 111.247C136.729 112.474 137.171 112.315 137.111 110.771L136.879 104.093C136.836 102.978 137.102 102.901 137.676 103.862C146.239 118.221 151.061 129.029 145.545 145.344C145.331 146.004 145.069 146.021 144.761 145.395C141.958 139.657 137.676 134.484 133.716 129.608C133.168 128.93 133.318 128.681 134.166 128.862L139.541 130.032C140.081 130.153 140.428 130.474 140.582 130.997C140.822 131.829 141.246 132.537 141.855 133.12C142.369 133.609 142.652 133.498 142.704 132.786Z" fill="#026270" fill-opacity="0.2"/>
<path d="M83.4854 113.861C88.6164 110.776 92.4469 107.727 92.0409 107.051C91.635 106.375 87.1464 108.328 82.0153 111.413C76.8843 114.498 73.0538 117.547 73.4598 118.224C73.8657 118.9 78.3544 116.947 83.4854 113.861Z" fill="#026270" fill-opacity="0.2"/>
<path d="M125.718 133.056C130.603 146.575 130.698 160.14 126 173.753C125.658 174.748 125.208 175.688 124.65 176.571C123.793 177.944 123.532 177.836 123.866 176.25C127.865 157.4 119.7 134.317 108.643 120.035C108.564 119.934 108.528 119.806 108.542 119.678C108.557 119.551 108.621 119.434 108.72 119.353C108.995 119.13 109.282 119.117 109.582 119.314C115.779 123.415 122.958 126.438 131.118 128.385C131.336 128.438 131.539 128.537 131.715 128.674C131.89 128.812 132.033 128.986 132.133 129.183C138.716 142.217 140.606 156.1 133.316 168.697C132.631 169.872 132.416 169.791 132.673 168.452C135.031 156.195 133.218 144.186 127.235 132.426C127.072 132.1 126.819 131.997 126.476 132.117L126.103 132.258C125.947 132.314 125.819 132.429 125.747 132.578C125.675 132.727 125.664 132.899 125.718 133.056Z" fill="#026270" fill-opacity="0.2"/>
<path d="M111.126 186.581C114.983 170.806 114.854 152.034 108.516 137.481C107.633 135.44 105.108 130.632 100.943 123.058C100.523 122.286 100.75 121.878 101.624 121.835L106.15 121.63C106.542 121.61 106.933 121.687 107.29 121.855C107.646 122.024 107.957 122.278 108.194 122.595C118.48 136.349 121.669 155.212 119.136 172.247C118.141 178.929 115.369 185.101 110.817 190.762C110.744 190.861 110.636 190.93 110.515 190.955C110.394 190.98 110.269 190.959 110.162 190.897C110.055 190.835 109.975 190.736 109.937 190.618C109.899 190.501 109.906 190.373 109.956 190.26C110.418 189.094 110.808 187.867 111.126 186.581Z" fill="#026270" fill-opacity="0.2"/>
<path d="M95.6061 197.531C94.2947 192.23 93.579 188.301 93.459 185.745C93.0132 176.318 93.1375 167.44 93.8318 159.111C94.2004 154.822 94.7019 154.809 95.3361 159.072C96.0433 163.833 96.4419 168.516 98.3576 172.955C98.6576 173.659 98.9319 173.65 99.1805 172.93C103.951 158.763 101.919 145.961 99.0262 131.499C98.9405 131.044 99.0562 130.65 99.3733 130.315L100.595 128.99C115.831 148.226 111.292 175.644 103.269 196.849C103.106 197.278 102.798 197.492 102.343 197.492L95.6061 197.531Z" fill="#026270" fill-opacity="0.2"/>
<path d="M96.3269 223.162C97.2355 223.6 97.5612 223.089 97.3041 221.631C97.2012 221.065 97.1969 220.537 97.2912 220.048C97.7884 217.484 97.9469 214.876 97.7669 212.225L102.318 212.148C102.893 212.14 103.304 212.393 103.553 212.907L105.648 217.205C105.871 217.642 105.884 218.088 105.687 218.543L100.634 230.393C100.394 230.951 100.141 230.955 99.8755 230.406L96.3269 223.162Z" fill="#026270" fill-opacity="0.2"/>
<path d="M83.0089 86.7497C85.5353 85.2901 92.5303 83.1611 92.5303 83.1611C92.5303 83.1611 86.4042 88.8813 84.5996 89.924C82.795 90.9666 75.1441 93.7774 75.1441 93.7774C75.1441 93.7774 80.4825 88.2094 83.0089 86.7497Z" fill="#026270"/>
</svg>
